<svg version="1" xmlns="http://www.w3.org/2000/svg" width="1333.333" height="1333.333" viewBox="0 0 1000.000000 1000.000000"><path d="M518 32.9c-1.2 2.4-1.3 3.4-.1 2.7.9-.6 2.2-4.6 1.5-4.6-.2 0-.8.9-1.4 1.9z"/><path d="M506.9 37.7c-.1 2.1-.2 4.2-.4 4.8-.1.5-.3 2.1-.3 3.4-.3 3.5-2.4 1.1-2.4-2.6 0-3-3.6-7.5-5.3-6.5-.9.6-7.8 1.3-13.2 1.4-2.7 0-3 1.3-.5 2.3 1.6.7 1.5.8-.3 1.5-1.1.5-1.5.9-.8.9.6.1.9 1 .6 2.1-.8 3-2.3 1.3-2.3-2.6 0-1.9-.4-3.4-.9-3.4s-1.6-.3-2.5-.6c-1.1-.4-1.6-.1-1.6 1 0 1.4-.4 1.5-2 .6-1.2-.6-3-.8-4-.5-1.3.4-2 .2-2-.7 0-.9-.3-.9-1 .2-.5.8-1.7 1.5-2.7 1.5-1 0-1.9.9-2.1 2-.7 3.5-2 4-4.2 1.5-1.5-1.7-2.3-2.1-3.1-1.3-1.5 1.5-.3 3.3 2.2 3.3 1 0 1.9.7 1.9 1.5s-.5 1.5-1.1 1.5c-.5 0-.8.4-.4.9.3.5.1 1.2-.5 1.6-.5.3-1-.1-1-1s-.5-1.3-1.1-.9c-.7.4-.9 2.4-.6 5.3.5 4.5.5 4.6-.8 1.6-.8-1.7-1.4-3.6-1.5-4.3 0-.6-.9-2.1-2-3.2-1.6-1.6-2-1.7-2-.4 0 .8.4 2.3.9 3.3 1.4 2.5-.3 4.9-2.2 3.3-.8-.7-2.1-1-2.9-.7-.9.4-1.9-.3-2.6-1.7l-1.1-2.3V53c-.2 3.3-1.2 7-2 7-.3 0-1.5-1.4-2.6-3-2.5-3.8-5-4.1-4.1-.5.6 2.2.3 2.5-2.3 2.5-1.7 0-3.4.7-3.9 1.5-.7 1.3-1.1 1.1-2.2-1-1.4-2.7-4.6-3.6-3.7-1 .4.8.2 1.7-.3 2-1.4.8 0 3.5 1.5 2.9.7-.3 1.5.3 1.9 1.3.3 1 .9 2.4 1.2 3 1.4 3-2.5.9-6.3-3.4-3.7-4.2-4.2-4.5-4.3-2.5 0 1.3-.4 2-1 1.7-.6-.4-.3.9.6 2.9 1 1.9 2.1 3.3 2.6 3 .4-.3 1.3.8 1.9 2.3.6 1.5 2.1 4.6 3.2 6.7 1.1 2.1 1.4 3.6.8 3.1-1.6-.9 1.2 4.5 4.9 9.6 1.5 2.1 3.3 5.2 4 6.9.7 1.6 1.6 3 2.1 3s.3-1.3-.6-3c-.8-1.6-1.5-3.5-1.5-4.2.1-1.7 4 3 4 4.7 0 .7.3 1.5.8 1.7.4.1 1.4 1.9 2.3 3.8 1.5 3.3 1.5 3.6-.4 6.2-1.7 2.2-1.8 3-.7 4.3.7.8 1.9 1.5 2.6 1.5.8 0 1.4.3 1.4.8 0 .4.9 1.3 2 2 2.1 1.2 2.1 1.2.4-1.3-.9-1.4-1.4-2.8-1.2-3.1.6-.5 10.8 15.9 10.8 17.2 0 .4-1.4-1.3-3.2-3.7-3.3-4.6-4.9-6.1-5.7-5.3-.9.9 3.2 7.4 4.2 6.7.6-.3.7-.1.3.6-1 1.5 4.1 10.1 5.9 10.1.8 0 1.5-.5 1.5-1 0-.6-.4-1-.9-1-.9 0-2.3-4.1-1.6-4.8.4-.4 5.5 9.2 5.5 10.3 0 .4-.4.3-1 0s-.7.1-.4 1c.6 1.4.8 1.4 1.9-.2 1.3-1.7 1.4-1.6 2.4 1 .6 1.6 1.1 3.5 1.1 4.4 0 .8.9 1.7 2 2 1 .3 2.2 1.5 2.6 2.7.4 1.1 1.5 3.3 2.6 4.9 1.1 1.5 1.8 3.3 1.5 4-.2.6-1.4-.8-2.7-3.3-1.2-2.5-3.4-5.7-4.9-7.1-1.4-1.4-3.2-3.4-3.9-4.5-1.1-1.5-1.2-1.6-.7-.2.3 1 .8 2.5 1.2 3.5.4 1.1.3 1.4-.5.9-.8-.5-1-.2-.6.8.3.9 1 1.4 1.4 1.1.4-.2.8.5.8 1.8 0 1.2 1.6 4.9 3.6 8.1 2 3.3 3.9 7.5 4.2 9.3.4 1.9 1.1 3.2 1.8 3 1.4-.5 3.8 4.2 3.1 6.3-.3.9.3 2.8 1.3 4.1 1 1.3 3.3 5.4 5.1 9.1 1.8 3.7 3.8 6.5 4.3 6.2.6-.4.8.1.4 1.4-.5 1.3-.1 2.2 1 2.6.9.3 1.4 1.3 1 2.1-.6 1.7 1 3 1.9 1.5.4-.6 0-1.9-.9-2.9s-1.6-2.8-1.6-4.1c0-1.2-1.1-5.4-2.5-9.3-1.4-3.8-2.4-7.2-2.1-7.4.2-.2.9 1.2 1.6 3.1.7 2.1 1.6 3.3 2.2 3 .7-.5.8-.2.3.5-.7 1.2.3 4.2 4 12.6l1.4 3v-2.9c.1-2.8.2-2.9 1.5-1 .8 1 1.8 1.6 2.2 1.2.4-.4.1-1.4-.6-2.3-.7-.8-.9-1.5-.5-1.5s.2-.7-.5-1.5-.8-1.5-.3-1.5c1.1 0 .4-7.1-.9-8.7-.7-.8-.4-1.1 1.1-1 1.2.1 2.2.8 2.2 1.7.1.8.3 3.7.5 6.5.4 7 .4 7.2 1.4 5 .7-1.7.9-1.7.9-.3.1 2.5 1.8 2.2 2.4-.3.4-1.4 1.1-2 2.1-1.6.9.4 1.7-.1 2.1-1.4.4-1 1-1.9 1.4-1.9 1 0 3.4-12.7 2.8-14.5-.4-.8-.2-1.7.3-2 .5-.3.7-1.1.5-1.8-1-3.4-1.4-12.8-.5-12.2.5.3 1 2.8 1 5.5s.5 5.2 1 5.5c.8.5.8 1.1 0 2-.6.7-1.1 3-1.1 5.2-.2 14-.5 18.2-1.3 19-.5.4-.5-.7-.1-2.7 1-4.7-.4-3.1-2.5 2.7-.9 2.8-1.4 6.7-1.2 9.4l.4 4.5 4.5.3c4 .2 4.4 0 3.8-1.8-.4-1.3 0-2.3 1.1-2.9 1-.5 1.4-1.4 1-2.1-.6-.9-1.1-.9-2.2 0-1.8 1.5-1.8 1.1.6-3.9 1.1-2.2 2-4.8 2-5.7 0-.9.4-1.4.9-1 .5.3 1.2.1 1.6-.5.3-.5.1-1-.4-1-.6 0-1.1-.6-1.1-1.4 0-.8.9-1.4 2-1.3 2.3.1 2.2 1.5-.6 7.5-1.1 2.3-2.4 3.9-2.8 3.5-.4-.4-.4 0 0 1 .5 1.4.9 1.5 2 .6.8-.6 1.4-1.5 1.4-2 0-.8 2.1-5.6 8.1-18.6 1.6-3.4 2.9-6.6 2.9-7.1s.7-2.4 1.7-4.2c.9-1.8 1.6-4.6 1.7-6.2.1-1.5.4-2.8.9-2.8 1.2 0 4.7-6.4 4.2-7.8-.3-.7 0-1 .5-.7.6.3 1-.3 1-1.4 0-1.1 1.4-5 3-8.6 3.4-7.4 3.6-8.7 1.5-7.9-1.1.5-1.3.2-.9-.9.3-.9 1.1-1.4 1.7-1.1.7.2 2.5-2.4 4.2-6.1 1.7-3.6 3.3-6.5 3.7-6.5.4 0 .5-1.3.2-2.8-.4-1.9-.1-3.4.9-4.4.8-.8 2.9-3.8 4.7-6.6 1.7-2.9 3.7-5.5 4.3-5.9 1.9-1.2 11.4-16 11.5-17.8 0-.6-.4-.9-1-.7-.5.1-.7-.2-.3-.8.3-.5 1.1-1 1.7-1 1.8 0 7.3-5.2 8-7.6.8-2.8.5-2.9-2.8-.8-2.3 1.6-2.4 1.6-1.8-.2.3-1.1-1.3 1-3.7 4.6-8.2 12.5-10.9 12.2-6.4-.7 1.6-4.8 2.4-8.6 2-10.2l-.6-2.5-2.4 3c-2.3 2.8-2.4 2.8-2.5.6 0-1.2.7-2.5 1.5-2.8 1-.4 1.4-1.4 1-2.8-.2-1.1-.2-1.5.1-.8.9 2 3.4-.5 3.4-3.4 0-1.3.4-3.3.9-4.6 2.9-7.7 3.2-9.8 1.9-12.5-.9-1.9-2.2-2.8-4.1-3-1.5-.1-2.7.2-2.7.8 0 .5.9.9 1.9.9 1.1 0 2.3.5 2.6 1 .6 1-2.2 11.6-4.8 18.4-.9 2.6-1.2 2.7-1.8 1-1.2-3.1-1-4.4.6-3.8 1.2.5 1.4 0 .9-2.5-.5-2.3-.2-3.7 1.1-5.1 1-1.1 1.5-2.6 1.1-3.5-.7-2-2.6-1-2.6 1.3 0 .9-.5 2.4-1.1 3.2-.8 1.1-.9.8-.4-1.3.3-1.7.1-3.5-.6-4.3-.7-.8-.9-2.7-.5-4.7.4-2.3.3-2.8-.4-1.7-.5.8-1 2.3-1 3.2 0 1-.4 1.8-1 1.8-.5 0-1-1.1-1-2.5 0-2.9-2.9-6.7-4.4-5.7-2.5 1.5-7.7 1.1-9.5-.7-2.1-2.1-3.1-1.8-3.1 1.1 0 1-.4 1.8-1 1.8-.5 0-1-.5-1-1.1 0-.6-.7-1.8-1.6-2.7-1.5-1.5-1.6-1.3-1.1 2.4.2 2.1.8 5 1.1 6.4.4 1.4-.3.3-1.4-2.4-1.2-2.7-1.9-5.5-1.6-6.2.3-.7.1-1.6-.5-2-.6-.3-1.3.3-1.6 1.5-.6 2.3-2.3 2.9-2.3.8 0-.8-.4-.7-1 .3-.8 1.3-1 1.2-1-.3 0-2.5-4.2-4.2-6.9-2.8-1.1.7-2.1 2-2.1 3 0 2.9-1.3 3.3-2.7.9-.7-1.3-1.2-1.7-1.3-1.1 0 2.2-1.6 1.4-2.9-1.3-.8-1.9-1.7-2.5-3.1-2.1-1.1.3-2 .1-2-.4s-.7-.9-1.5-.9c-1 0-1.5 1.1-1.6 3.7zm-33.9 6c0 2.2-.2 2.5-1 1.3-1.3-2-1.3-4 0-4 .6 0 1 1.2 1 2.7zm-3 .3c0 .5-.4 1-1 1-.5 0-1-.5-1-1 0-.6.5-1 1-1 .6 0 1 .4 1 1zm22.4 7.2c1.8 7.7 2 12 .2 6.8-2.6-7.5-3.8-10-4.7-10-1.4 0-1.1-3.8.4-4.3 1.8-.7 2.3.2 4.1 7.5zm57.9-4.7c-.7 2.1-1.3 1.9-1.3-.6 0-1.1.4-1.8 1-1.4.5.3.7 1.2.3 2zm-2.3 2.6c0 .5-.4.9-1 .9-.5 0-1-.7-1-1.6 0-.8.5-1.2 1-.9.6.3 1 1 1 1.6zm-77 5.4c0 1.2-1.7.2-3.3-2-1-1.4-1.5-3-1.1-3.6.5-.9 4.4 4 4.4 5.6zm36-2.9c0 .8-.4 1.4-.9 1.4-1.1 0-2.2-2.6-1.4-3.4.9-.9 2.3.3 2.3 2zm55.7-.4c-.3.8-.6.5-.6-.6-.1-1.1.2-1.7.5-1.3.3.3.4 1.2.1 1.9zm-77.7.7c0 .6-.4 1.3-1 1.6-.5.3-1-.1-1-.9 0-.9.5-1.6 1-1.6.6 0 1 .4 1 .9zm54.7 4.3c-.3.8-.6.5-.6-.6-.1-1.1.2-1.7.5-1.3.3.3.4 1.2.1 1.9zM509 61.1c0 .5-.7.9-1.5.9-.9 0-1.5-.9-1.5-2.1 0-1.8.2-1.9 1.5-.9.8.7 1.5 1.6 1.5 2.1zm-74.3.1c-.3.8-.6.5-.6-.6-.1-1.1.2-1.7.5-1.3.3.3.4 1.2.1 1.9zm25.3.4c0 .8-.5 1.2-1 .9-.6-.4-.8-1.1-.5-1.6.9-1.4 1.5-1.1 1.5.7zm-17.6 3.6c-.9 1.4-2.4-.2-2.4-2.5.1-2.1.1-2.1 1.5-.3.8 1 1.2 2.3.9 2.8zm-22.2 4.1c1 1.9.8 1.8-2.1-.2-1.7-1.3-2.9-2.7-2.5-3.2.7-1.2 3 .6 4.6 3.4zM556 68c0 1.6-.4 3-.8 3-.5 0-.9-1.4-.9-3 0-1.7.4-3 .9-3 .4 0 .8 1.3.8 3zm-95.2.5c-.3.3-.9-.2-1.2-1.2-.6-1.4-.5-1.5.5-.6.7.7 1 1.5.7 1.8zm48.9-.3c-.3.8-.6.5-.6-.6-.1-1.1.2-1.7.5-1.3.3.3.4 1.2.1 1.9zM429 75.4c0 .5-.9-.3-2-1.7s-2-2.9-2-3.4c.1-1 3.9 3.9 4 5.1zm83-1.8c0 .8-.4 1.2-1 .9-.5-.3-1-1-1-1.6 0-.5.5-.9 1-.9.6 0 1 .7 1 1.6zm51 5.5c-1.3 2.4-.4 4.1 1 1.9.8-1.3 1-1.2 1 .2 0 1-.7 1.8-1.5 1.8-1.2 0-1.3.5-.4 2.7.8 2.2.7 3-.7 4-3.6 2.6-4 1.7-1.9-4.2.6-1.6.3-1.5-1.4.5-2.6 3.2-2.8 1.1-.1-2.3 1.1-1.4 2-2.9 2-3.4 0-.9 2-3.3 2.7-3.3.2 0-.1.9-.7 2.1zm-63.3 6.1c-.3.7-.5.2-.5-1.2s.2-1.9.5-1.3c.2.7.2 1.9 0 2.5zm-72.9.3c-.3.3-.9-.2-1.2-1.2-.6-1.4-.5-1.5.5-.6.7.7 1 1.5.7 1.8zM553 87c0 .5-.4 1-1 1-.5 0-1-.5-1-1 0-.6.5-1 1-1 .6 0 1 .4 1 1zm-86.5 1c.3.5.1 1-.4 1-.6 0-1.1-.5-1.1-1 0-.6.2-1 .4-1 .3 0 .8.4 1.1 1zM432 91.5c0 .5-.5.3-1-.5s-1-2-1-2.5c0-.6.5-.3 1 .5s1 1.9 1 2.5zm68.9 4c.1 1.6-.1 1.7-.9.5-.5-.8-.9-3.1-.9-5l.1-3.5.8 3c.4 1.6.8 3.9.9 5zM442 93.1c0 .6-.4.7-1 .4-.5-.3-1-1.1-1-1.6 0-.6.5-.7 1-.4.6.3 1 1.1 1 1.6zm126.1 3.6c1 1.1 1 1.4.2.9-.8-.4-1.3-.2-1.3.4 0 .6-.5.8-1.2.4-.9-.6-.9-.9 0-1.2.7-.2 1-.8.6-1.3-.9-1.5.3-1 1.7.8zm-11 4.6c-1.3 1.3-1.5-1.1-.4-4 .7-1.6.8-1.5 1.1.6.2 1.3-.1 2.8-.7 3.4zm7 0c-1 .9-1.1.8-.5-.6.3-1 .9-1.5 1.2-1.2.3.3 0 1.1-.7 1.8zM446 106.4c0 .5-.7.3-1.5-.4s-1.2-1.7-.9-2.2c.7-1 2.4.9 2.4 2.6zm114.7-1c-.8.9-1.7 2.1-2 2.8-.2.7-.8 1-1.2.5-.5-.4.2-1.8 1.5-3.2 1.3-1.4 2.5-2.3 2.8-2 .2.2-.3 1.1-1.1 1.9zm-3.7 5c0 .2-.9.6-2 .9-1.1.3-1.8.1-1.4-.4.5-.9 3.4-1.3 3.4-.5zm-41 4.1c0 .8-.4 1.5-1 1.5-.5 0-1-.7-1-1.5s.5-1.5 1-1.5c.6 0 1 .7 1 1.5zm36.1 2.8c-.8.8-1.1.7-1.1-.4 0-.9.3-1.9.7-2.3.4-.4.9-.2 1.1.4.3.7-.1 1.7-.7 2.3zm-52.4 3.9c-.3.8-.6.5-.6-.6-.1-1.1.2-1.7.5-1.3.3.3.4 1.2.1 1.9zm-48.7 1.9c0 .6-.4.7-1 .4-.5-.3-1-1.1-1-1.6 0-.6.5-.7 1-.4.6.3 1 1.1 1 1.6zm96 .9c-.6 1.1-1.3 2-1.6 2-.2 0 0-.9.6-2s1.3-2 1.6-2c.2 0 0 .9-.6 2zm-45 2.8c0 .7-.4 1-1 .7-.5-.3-1-1.6-1-2.8 0-1.8.2-1.9 1-.7.5.8 1 2.1 1 2.8zm48-.1c0 1-.5 2.5-1 3.3-.7 1.1-1 .7-1-1.8 0-1.7.5-3.2 1-3.2.6 0 1 .8 1 1.7zm-26.3 4.5c-.3.8-.6.5-.6-.6-.1-1.1.2-1.7.5-1.3.3.3.4 1.2.1 1.9zm17.4 7.5c-.8 1.5-1 1.1-.9-1.5.1-2.6.3-3 1-1.8.5 1 .5 2.3-.1 3.3zm6.8-2.6c-1.6 1-2.3.4-1.4-1 .3-.6 1.1-.8 1.7-.5.6.4.5.9-.3 1.5zm-66.8 5.2c-.8.8-1.1.3-1.1-1.9.1-2.5.2-2.7 1.1-1.1.8 1.4.8 2.2 0 3zm-11.1 4.6c0 .9-.7.3-1.5-1.3-1.9-3.6-1.9-4.7 0-2.2.8 1.1 1.5 2.7 1.5 3.5zm69.7-2.7c-.3.8-.6.5-.6-.6-.1-1.1.2-1.7.5-1.3.3.3.4 1.2.1 1.9zm-39 2c-.3.8-.6.5-.6-.6-.1-1.1.2-1.7.5-1.3.3.3.4 1.2.1 1.9zm35 3.9c-.1 2.6.4 4.3 1.3 4.9.8.5 1.1 1.2.7 1.6-.4.4-1.4-.1-2.1-1.2-1.4-1.8-1.5-1.8-2.6 1.1-.7 1.6-1.4 4.5-1.7 6.2-.3 1.8-.9 3.3-1.3 3.3-1 0 .4-6.7 2.3-11.1.9-2 1.3-3.9 1-4.2-.3-.4 0-1.3.6-2.1.7-.8.9-2.1.5-2.7-.4-.7-.3-.9.4-.5.6.3 1 2.5.9 4.7zm-10-1.9c-.3.8-.6.5-.6-.6-.1-1.1.2-1.7.5-1.3.3.3.4 1.2.1 1.9zm12.5 1c-.7.7-1.2.8-1.2.2 0-1.4 1.2-2.6 1.9-1.9.2.3-.1 1.1-.7 1.7zm-14.5 4.5c-.3 1-.5.4-.5-1.2 0-1.7.2-2.4.5-1.8.2.7.2 2.1 0 3zm-37.6-.4c-.1 1.2-1.5.9-1.9-.4-.3-.6.1-1 .8-.8.6.3 1.1.8 1.1 1.2zm21.6 3.4c-.3 1-.5.4-.5-1.2 0-1.7.2-2.4.5-1.8.2.7.2 2.1 0 3zm-19.2 3.9c2 4.8 1.9 5.4-.5 2.4-1.8-2.3-2.7-6-1.5-6 .3 0 1.2 1.6 2 3.6zm14.5-.6c0 .5-.5 1-1.1 1-.5 0-.7-.5-.4-1 .3-.6.8-1 1.1-1 .2 0 .4.4.4 1zm7 4.1c0 .6-.4.7-1 .4-.5-.3-1-1.1-1-1.6 0-.6.5-.7 1-.4.6.3 1 1.1 1 1.6zm-6 2.5c0 1.4-.4 2.2-1 1.9-.5-.3-1-1.7-1-3.1 0-1.4.4-2.2 1-1.9.6.3 1 1.7 1 3.1zm30.5.3c-.3.6-1.1 1.1-1.7 1.1-.6 0-.6-.6.2-1.5 1.4-1.7 2.6-1.3 1.5.4zm-42.5 4.8c0 2-1.6.8-2.3-1.7-.4-1.7-.3-1.9.9-.9.8.6 1.4 1.8 1.4 2.6zm36.6 2.1c-1.1 1-1.4-.3-.8-3.3l.7-3 .3 2.8c.2 1.6.1 3.1-.2 3.5zm-9.3-3.3c-.3.9-.8 1.4-1 1.1-.3-.3-.2-.9.2-1.5.9-1.6 1.5-1.3.8.4zm5.7-.5c0 .5-.5 1-1.1 1-.5 0-.7-.5-.4-1 .3-.6.8-1 1.1-1 .2 0 .4.4.4 1zm-21.3 2.2c-.3.8-.6.5-.6-.6-.1-1.1.2-1.7.5-1.3.3.3.4 1.2.1 1.9zM531 174c0 1.1-.9 2.9-2 4s-2.4 3.7-2.8 5.8c-.5 2.4-1.4 3.8-2.6 4-1.5.3-1.7-.1-1.1-3 .4-1.8 1.9-4.3 3.3-5.6 1.5-1.2 2.6-2.7 2.4-3.3-.1-.6.2-.8.8-.4.5.3 1-.3 1-1.4 0-1.2.2-2.1.5-2.1s.5.9.5 2zm-13.1 2.1c-1.3 2.6-2.3 1.8-1.4-1 .3-1.2 1.1-1.9 1.6-1.6.5.4.5 1.4-.2 2.6zm-37.9 1.8c0 1.1.3 2.8.6 3.8s-.2.7-1-.7c-1.8-2.9-2-5-.6-5 .6 0 1 .9 1 1.9zm15.3 6c.4 1.7.2 1.8-1.3.9-1-.7-1.6-1.7-1.3-2.5.7-1.7 1.9-.9 2.6 1.6zm7.4 6.3c-.3.7-.5.2-.5-1.2s.2-1.9.5-1.3c.2.7.2 1.9 0 2.5zm20.6 2.5c-.3.7-.9 1.3-1.3 1.3s-1-.6-1.3-1.3c-.3-.7.3-1.3 1.3-1.3s1.6.6 1.3 1.3zm-19.8.2c.3.5.1 1.2-.5 1.6-.5.3-1-.1-1-.9 0-1.8.6-2.1 1.5-.7zm5.6 16.4c-.8.8-1.1.7-1.1-.4 0-2 1.3-3.4 1.8-1.9.3.7-.1 1.7-.7 2.3zm-.1 4.7c0 .5-.2 1-.4 1-.3 0-.8-.5-1.1-1-.3-.6-.1-1 .4-1 .6 0 1.1.4 1.1 1zm4 .4c0 .3-.4.8-1 1.1-.5.3-1 .1-1-.4 0-.6.5-1.1 1-1.1.6 0 1 .2 1 .4zM553.1 36.6c0 1.1.3 1.4.6.6.3-.7.2-1.6-.1-1.9-.3-.4-.6.2-.5 1.3zM464.5 38c-.3.5-.1 1 .4 1 .6 0 1.1-.5 1.1-1 0-.6-.2-1-.4-1-.3 0-.8.4-1.1 1zM578.6 51.9c-.4.7-.5 1.5-.2 1.8.9.9 1.9-.4 1.4-1.8-.4-1.1-.6-1.1-1.2 0z"/><path d="M591.2 61.5c-1.2 1.4-2.2 2.8-2.2 3.1 0 .3-1.5 2.4-3.3 4.7-4.9 6.1-5.4 7.2-2.8 5.8 1.1-.7 2.1-1.6 2.1-2.2 0-.6.5-.7 1.1-.4.6.4 1.3-.2 1.6-1.4.3-1.2.9-2.1 1.3-2.1.9 0 5.5-8.9 4.8-9.5-.2-.3-1.4.6-2.6 2zM573.3 67.7c-.3 1-.8 2.1-1 2.5-.2.5 0 .8.5.8s1.2-1.1 1.4-2.5c.6-2.9 0-3.3-.9-.8zM413 73.5c0 .5.5 1.7 1 2.5s1 1 1 .5c0-.6-.5-1.7-1-2.5s-1-1.1-1-.5zM588 77c-.8.5-1.2 1.2-.9 1.5.4.3 1.2-.1 1.9-1 1.4-1.7 1.1-1.9-1-.5zM588.5 82.1c-.9 1.7-1.5 3.3-1.3 3.5.3.2 1.2-1.2 2.1-3.1 2.1-4.3 1.3-4.7-.8-.4zM416.6 81.3c.3 1 .9 1.5 1.2 1.2.3-.3 0-1.1-.7-1.8-1-.9-1.1-.8-.5.6zM437 107.6c0 .8.5 1.2 1 .9.6-.4.8-1.1.5-1.6-.9-1.4-1.5-1.1-1.5.7zM562.7 117.6c-3.1 3.1-5.7 6.2-5.7 6.8 0 .6 1.4-.5 3.1-2.4 1.7-1.9 4.5-5 6.2-6.8 5.1-5.4 2.4-3.6-3.6 2.4zM454.1 143c1.4 3.1 1.9 3.6 1.9 2.4 0-.6-.7-1.9-1.6-3-1.4-1.8-1.4-1.8-.3.6zM457 148.9c0 .6.4 1.3 1 1.6.6.3.7-.1.4-.9-.7-1.8-1.4-2.1-1.4-.7zM472.5 181c-.3.5-.1 1 .4 1 .6 0 1.1-.5 1.1-1 0-.6-.2-1-.4-1-.3 0-.8.4-1.1 1zM475 192.3c0 2.4 5 14.7 6 14.7s5 7.6 4.4 8.2c-.2.3.5 1.3 1.6 2.3 2.2 2 4 1.4 2.2-.8-.6-.7-3.9-6.7-7.2-13.2-6.7-13.1-7-13.6-7-11.2zM497.1 208.4c-.1 1.3-.6 1.7-2.1 1.3-2.4-.6-3.2.4-1.9 2.3.7 1.2.9 1.2.9.1 0-.7.6-1.1 1.5-.7.8.3 1.5.1 1.5-.4 0-2 1.9-.9 2.3 1.2.3 1.6.5 1.3.6-1 0-1.8-.3-3.1-.8-2.8-.5.4-1.2 0-1.4-.6-.3-.8-.6-.5-.6.6zM504.2 220.5c1.1 1.1 5.8 1.5 5.8.5 0-.5-1.4-1-3.2-1-1.7 0-2.9.2-2.6.5zM494.4 223.6c-2.4.6-5.4 6.6-5.4 11 0 2.2-.3 2.6-1 1.4-.7-1.1-1-.3-1 3 .1 2.5.7 5.3 1.4 6.3 1.3 1.6 1.4 1.6 2-.5.3-1.3.6-3.5.6-5.1 0-1.5.5-2.7 1-2.7.6 0 1 .5 1 1 0 .6 1 2.1 2.1 3.3l2.2 2.2-.6-2.2c-.6-2.5.8-4.1 1.6-1.9.4 1 1.8 1.3 5.1 1 4.3-.4 4.6-.3 4.6 2 0 1.9-.8 2.7-3.4 3.6-1.9.6-3.6 1.9-3.9 3.1-.3 1.1-.9 1.9-1.4 1.8-1.5-.2-5.3 1.3-5.3 2.2 0 .5.4.9.9.9s1.1.7 1.4 1.4c.4 1 .1 1.3-.9.9-.7-.3-1.4 0-1.4.5 0 .6 1.7 1.2 3.8 1.4l3.7.3.1 4.9c.1 5.3 2 7.4 5.1 5.8 1-.5 2.4-.7 3.2-.4 1.1.3 1.2-.1.8-1.9-.4-1.3-.7-2.7-.7-3.2 0-1.5-2-.6-2 .9 0 2.5-3.5 1.2-3.8-1.5-.3-2.1-.1-2.3 2.2-1.7 2.8.7 3.7-1 1.1-2-1.6-.7-2.1-4.4-.6-4.4.5 0 .7-.9.4-2-.3-1.1 0-2 .6-2s1.1-1.7 1.2-3.8v-3.7l1.5 3.9c.8 2.2 1.6 4.1 1.8 4.3.2.2 1.3-2.3 2.5-5.5 2.4-6.3 2.1-13.2-.4-13.2-1.7 0-2.7-4.1-1.3-5.7 2-2.4-.7-3.6-8.9-3.9-4.3-.1-8.7 0-9.9.2zm-.1 5.4c-.8 3-2.1 3.4-1.5.5.2-1.4.8-2.5 1.2-2.5.5 0 .6.9.3 2zm20.3 10.7c-1.1 1.1-1.7-.4-.9-2.3.7-1.8.8-1.8 1.1-.1.2 1 .1 2.1-.2 2.4zm-2.6-.1c0 .8-.5 1.2-1 .9-.6-.4-.8-1.1-.5-1.6.9-1.4 1.5-1.1 1.5.7z"/><path d="M492.5 242c.3.5.8 1 1.1 1 .2 0 .4-.5.4-1 0-.6-.5-1-1.1-1-.5 0-.7.4-.4 1zM506.1 311.2c-.1 2.3-1.9 3.2-3.6 1.8-1.2-1-1.5-.9-1.5.3 0 .9.8 1.7 1.8 2 1.2.3.9.6-1.2 1.2-4.1 1.1-8.5 4.2-21.2 15.1-9 7.7-11.1 10-10.8 11.9.1 1.7-.4 2.6-1.7 3-1 .4-1.9 1.1-1.9 1.6s-.5.9-1.1.9c-.6 0-.9-.7-.5-1.5.9-2.3-.7-1.7-2.7 1-1.5 2.2-1.6 2.5-.2 2.5.8 0 1.5.7 1.5 1.5s.5 1.5 1 1.5c.6 0 1 .4 1 1 0 .5-1.9 1-4.1 1-3.6 0-4-.2-2.9-1.5.7-.9 1-1.8.7-2.1-.7-.7-5.7 2.5-5.7 3.7 0 .5-2.5 3.4-5.5 6.5-5.5 5.7-7.5 9.1-5.8 10.3.5.3 1.2 1.4 1.6 2.3.9 2.4 2.8 2.3 3.4-.3.4-1.2 1.1-1.8 2-1.5.8.3 1.7.6 1.9.6.2 0 .4.9.4 2 0 1.6-.7 2-3.7 2.1-2.1.1-4.6.1-5.5 0-2.3-.3-4.3 3.2-6.1 10.9-1.4 5.6-1.6 15.3-1.3 71.5.2 35.7.6 66.6.8 68.5.3 1.9.1 4.9-.2 6.6-.4 1.7-.4 3.8.1 4.6.5.8 1.1 11.8 1.4 24.4.3 12.6.8 25.1 1.1 27.8.2 2.6 0 5.3-.5 6-.6.7-.7 3.4-.2 7.1.5 3.3.7 6.3.4 6.7-.7 1.2-2 115.2-1.3 117.8 0 .3.1 48.2 0 106.5v108.9c.1 3.3 1.6 6.6 3.1 6.6.6 0 .8-.9.4-2-.6-1.8-.4-1.9 2-1 1.5.6 3.7.7 5.1.4 1.4-.4 3.1-.1 4 .7 1.3 1 1.7 1 2.4 0 1.1-1.9 3-.4 3 2.4 0 1.5.7 2.6 2 3 2.8.9 4-.2 4-3.6 0-1.6.5-2.9 1.2-2.9.8 0 .9-.3.1-1.1-1.3-1.3-.5-5.9 1.1-5.8 2.6.1 4.1 1.6 4.4 4.1.2 1.4-.2 2.9-.7 3.3-1.4.8-1.4 4.5-.1 4.5.6 0 1 .9 1 1.9 0 1.6 1 2 6.3 2.6 12.5 1.3 26.4 1.3 36.2-.1 5.5-.7 12.5-1.4 15.6-1.4 3.1 0 6.3-.6 7.4-1.4 1.1-.8 2.5-1.2 3.2-.9.7.3 2 0 2.8-.7 1.2-1 1.6-.9 2 .1.7 1.8 6.4 2.2 7.1.5.6-1.7 6.7-1.5 8.8.3 1.2 1 1.6 1 1.6.1 0-.7.7-1 1.6-.6 1.9.7.8-1.4-1.8-3.2-2.3-1.7-2.3-3.9.1-5.2 2.9-1.5 3.1-1.3 2.9 2.2l-.3 3.3h5.5c7.5.1 9-.8 9-5 0-2.9-.4-3.5-2.1-3.5-1.4 0-1.8-.4-1.2-1.3.4-.6.6-2 .5-2.9-.2-1 .3-1.8 1.1-1.8 2.3 0 2.7-4.5 2.8-31.4.2-26.1 0-27.2-4.3-26.2-2.8.7-1.9-4.4 1-5.5 2.5-1 2.1-3.1-.6-2.7-1.2.2-1.8-.5-2-2.3-.3-2.2.2-2.7 2.7-3.2 2.8-.6 3.1-1 3.1-4.7s-.2-4-2.9-4c-2.4 0-2.9-.5-3.5-3.2-.7-3.7-.2-4.5 1.8-2.8 1.3 1 1.8.9 3-.3 1.3-1.3 1.6-5.8 1.6-27.3.1-26.4 0-27.3-3.7-27.4-2.1 0-1.5-3.8.7-5 2.6-1.4 2.6-2.8-.2-2.6-1.6.1-2.1-.5-2.2-2.6-.1-2.2.2-2.6 2.3-2.5 1.9.2 2.6-.4 3.2-2.8 1.1-3.8.5-5.5-1.9-5.5-2.1 0-4.2-1.8-4.2-3.7 0-.8 1.2-1.3 2.9-1.3 2.3 0 3 .5 3.3 2.3.2 1.2.4-10.7.5-26.6 0-15.8-.3-28.8-.8-28.8-.5-.1-1.3-.2-1.8-.3-2.8-.4-1.5-5.6 1.4-5.6.8 0 1.5-.8 1.5-1.7 0-1.3-.3-1.4-1.2-.5-1.9 1.9-2.7 1.4-2.6-1.8.1-2.2.6-3 2.2-3.2 1.7-.2 2.2-1.1 2.4-4.6.3-4 .2-4.3-1.7-3.7-1.6.5-2.3.1-3.1-1.9-1.1-2.9-3.1-3.6-2.3-.8.4 1.5-.1 1.9-2.7 1.9-2.7 0-3.1-.3-2.8-2.6.3-2.4.7-2.6 4.3-2.4 2.2.2 4.9.4 5.9.5 2.9.4 3.1-2.1 3.1-29.7v-25l-2.2.2c-1.3.2-2.3-.2-2.3-.8 0-2 2.1-4.9 3.5-4.9.8 0 1.5-.5 1.5-1.1 0-.5-1-.9-2.2-.7-1.9.2-2.3-.2-2.3-2.5-.1-2.2.3-2.7 1.7-2.4 1.1.3 1.9-.2 2.3-1.3.9-2.9-.5-6.8-2.7-7.3-1.1-.3-1.7-1-1.4-1.6.4-.5.2-1.2-.4-1.6-1.5-.9-1.2-2.5.5-2.5.8 0 1.5.5 1.5 1.2 0 .8.3.8.9.2 1-.9 1.9-53.9 1-54.8-.3-.3-2-.2-3.7.3-2 .6-3.2.6-3.2 0 0-.5-1.2-.6-2.7-.3-2.2.6-2.5.4-2-1 .4-1 .7-2.3.7-3 0-.9.9-1.2 2.5-.8 1.7.3 2.5 1.1 2.5 2.4 0 2.6 2.3 1.8 3-1.1.3-1.2 1-2.2 1.5-2.1.6.1 1.1-.6 1.3-1.4.2-.9-.1-1.6-.7-1.6s-1.1.4-1.1 1c0 .5-.5 1-1 1-.6 0-.8-1.1-.4-2.5.4-1.5.2-2.5-.5-2.5-.6 0-1.1-.5-1.1-1 0-.6 1.1-.8 2.5-.4 2.4.6 2.5.4 2.5-3.6 0-3.3-.4-4.3-1.9-4.7-1-.2-2.4-1.6-3-3-1.1-2.3-1-2.4 1.6-2.1l2.8.3v-29c.1-16-.1-28-.3-26.8-.2 1.7-1 2.3-2.9 2.3s-2.4-.4-1.9-1.6c.3-.9.6-1.9.6-2.4s1-1 2.3-1.2c1.3-.2 2.3-1.1 2.5-2.4.4-2.8-2.4-3.9-3.1-1.2-.3 1.1-1 1.7-1.7 1.3-.8-.5-.8-1 0-2 .6-.7.7-2.1.3-3-.5-1.5-.2-1.7 1.5-1.3 2.8.8 3.6-.5 2.8-4.7-.5-2.7-1.2-3.4-3.4-3.7-1.6-.2-2.8-1-3-2.1-.3-1.3.1-1.8 1.5-1.6 1 .2 2.4-.1 3.2-.5 1.1-.7 1.3-.5.8.7-.3.9-.1 1.9.5 2.3 1 .6.6-27.5-.7-49.6-.1-1.9-.3-7-.4-11.3 0-4.9-.5-7.6-1.1-7.2-.5.3-1 1.9-1 3.4s-.5 3.2-1.1 3.8c-.8.8-.8 1.3 0 1.7 1.7 1.1 1.3 2.9-.5 2.2-.9-.4-2.3-.1-3.1.5-1.1 1-1.3.6-1.1-2.1.2-2.2.9-3.5 2-3.8 1-.2 1.8-.9 1.8-1.4 0-.6-1.1-.7-2.6-.4-2.2.6-2.5.4-2-.9.3-.9.6-2.3.6-3.1 0-.8.6-1.1 1.5-.8.8.4 2.6.3 4 0 2.2-.6 2.5-1.2 2.5-5.2 0-4.9-1.5-8.8-3.1-7.9-.5.4-.9 1.7-.9 3.1 0 2.8-2.9 3.3-5.4.9-.9-.9-1.7-1.1-2.1-.5-.3.5-1.7 1-3 1-1.6 0-2.5-.7-2.9-2.6-.4-1.5-.5-2.9-.2-3.2.3-.2 2.9 0 5.8.6 4.3.8 5.6.8 6.7-.3 1.3-1.3 1-2.2-2.4-7-4.6-6.7-6.1-7.9-5.1-4.1.7 2.7.6 2.8-2.6 2.1-1.8-.4-3.7-1.4-4.1-2.1-1.2-2.2-2.7-1.6-2.4.8.2 2.2-.1 2.3-5.7 2.1-3.3-.2-6.1-.4-6.2-.6-.2-.2-.1-1.2.2-2.4.8-2.8 4.4-3.8 4.4-1.3 0 1.1.5 2.2 1 2.5.6.3 1-.2 1-1.2s.8-2 1.8-2.1c.9-.1 3.9-.5 6.6-.9l5-.8-3.7-2.8c-4.4-3.3-5.1-3.4-4.3-.2.4 1.4.4 2.5.1 2.5-1 0-5-2.5-6.1-3.9-.6-.8-1.6-1.1-2.4-.6-1 .6-.9.9.1 1.6 1 .6.9 1-.6 1.5-1.1.4-2.7 1.3-3.6 2.1-1.3 1.1-2.2 1.1-4.3.2-3.1-1.4-3.4-3.4-.7-4.9 2.8-1.5 3.3-1.3 2.6 1-.9 2.7.1 2.5 3.6-.7 3.5-3.4 3.7-4.7.5-3.9-2 .5-2.3.3-1.9-1.4.3-1.2 0-2-.7-2-.6 0-1.4.9-1.7 2-.4 1.7-1.4 2-5.4 2-2.7 0-5.2.1-5.6.2-1.5.6-1.3-3 .2-4.6 2.3-2.2 4.2-2 4.1.5-.1 1.2.4 2.4 1.1 2.6.7.3.9-.3.6-1.7-.4-1.4-.1-1.9.8-1.5.8.3 2.7.1 4.4-.3l3-.8-5-2.9c-5.2-3.1-19.9-13.1-27.4-18.7-2.4-1.8-4.9-3.6-5.5-4.1-.8-.5-.8-.9 0-1.5.7-.4.8-1.5.3-2.7-.6-1.6-.8-1.7-.8-.3zM480 348.7c0 .2-2.5.3-5.5.2-5.4-.2-7-1.1-4-2.3.8-.3 1.5-.1 1.5.4 0 .6.5 1 1 1 .6 0 1-.9 1-2 0-2 0-2 3 .2 1.7 1.2 3 2.3 3 2.5zm-9 4.7c0 .8.5 1.6 1.2 1.8.7.3.8.7.3 1-1.6.9-5.5-1-5.5-2.7 0-.8.9-1.5 2-1.5s2 .6 2 1.4zm-13.6 7.5c1.6 1.8 1.6 1.9-1.2 2.3-1.6.2-3.8.1-4.8-.3-1.7-.7-1.7-.8-.1-.8.9-.1 1.7-.8 1.7-1.6 0-2.1 2.3-1.9 4.4.4zm7.9.1c.4 1.7 0 2-2.4 2-2.2 0-2.9-.5-2.9-2 0-1.4.7-2 2.4-2 1.5 0 2.6.7 2.9 2zm55.9.4c.7 1.1-2.2 3.7-3.4 3-.5-.3-.8-1.6-.8-2.9 0-1.9.4-2.3 1.8-1.8.9.4 2 1.1 2.4 1.7zm.4 7c.4 2.3.1 2.6-2.5 2.6-2.4 0-2.8-.3-2.4-2 .3-1.1 1.2-2 1.9-2 .8 0 1.4-.5 1.4-1.2 0-1.9 1.1-.2 1.6 2.6zm7.4 2.6c0 2.7-.2 5-.4 5s-1.1.3-2 .6c-1.2.4-1.6 0-1.6-1.5 0-1.2.7-2.4 1.6-2.8 1.3-.5 1.2-.9-.7-2.6-2.1-2-2.1-2.1-.3-2.8 3.2-1.3 3.4-1.1 3.4 4.1zm-43.2-1.2c-.5 2.7-2.8 2.6-2.8-.2 0-1.9.4-2.4 1.5-1.9.9.3 1.5 1.2 1.3 2.1zm6.5.2c-.3 1.1-.9 2-1.4 2-.4 0-.7-.9-.6-2 .1-1.1.7-2 1.3-2 .7 0 1 .8.7 2zm65.8 3c.5 0 .9.4.9 1 0 .5-1.2.9-2.7.8-1.6 0-4.4.2-6.4.6-3.4.5-3.7.4-3.5-1.9.1-1.8.7-2.5 2.1-2.6 4.2-.2 6.5-.6 7.2-1.3.5-.4.9.2 1.1 1.3.2 1.2.8 2.1 1.3 2.1zm-36.4 4.6c-.1.1-1.2.5-2.4.8-2.8.9-3.1-1-.5-4.2l1.7-2.1.7 2.6c.4 1.5.6 2.8.5 2.9zm14.4-4.1c1 7.9.7 10.3-1.2 10.8-1.5.4-1.9 0-1.9-1.8 0-1.2.7-2.8 1.5-3.5 2-1.7 1.9-3.3-.2-2.6-1.4.4-1.8 0-1.9-1.8-.1-1.8.3-2.4 1.7-2.3 1 .1 2 .6 2 1.2zm-78.3 3c-.1.1-1.3.6-2.5.9-1.8.6-2 .4-1.6-1.3.6-2.3 3.6-3.3 4.1-1.3.2.7.2 1.5 0 1.7zm5.8.7c-1.8 1.2-2.6.9-2.6-1.1 0-1.1.6-2.1 1.3-2.4 1.6-.5 2.8 2.6 1.3 3.5zm14.6-2c.6 1.6-.1 3.8-1.2 3.8-.4 0-.7-1.1-.6-2.5.1-2.7 1.1-3.3 1.8-1.3zm7.1.8c-.3 1.1-.9 2-1.4 2-1.4 0-1.1-2.8.4-3.3.6-.3 1.3-.6 1.4-.6 0-.1-.1.8-.4 1.9zm8 .9c-.5 1.9-3.6 3.4-4.7 2.3-.8-.8 2.4-4.2 4-4.2.7 0 1 .8.7 1.9zm57.4 1.6c-.4.8-.1 1.7.4 2.1.7.4.8 2 .4 4.1-.4 2.4-.1 4.2 1 6 .9 1.3 1.5 2.5 1.3 2.6-.2.1-1.6 1.3-3.2 2.7l-2.9 2.5.6-3.2c.4-1.8.2-3.5-.3-3.8-1.5-.9-1.2-4.1.5-5.5.8-.7 1.5-1.9 1.5-2.7 0-.9-.6-1.3-1.5-.9-1.1.4-1.5-.1-1.5-1.8 0-2.2 1.1-3.3 3.4-3.5.4-.1.6.6.3 1.4zm8.3-.6c0 .3.3 1.6.6 2.7.5 1.8.1 2.1-2 2.1-1.5 0-2.6-.5-2.6-1.2 0-.8-.3-2-.6-2.8-.4-1 .2-1.5 2-1.5 1.4 0 2.6.3 2.6.7zm-29.7 4.1c.5 2.1.2 2.5-1.8 2.6-3 .2-3.5-2.9-.8-4.5 1-.5 1.8-.9 1.9-.8.1.1.4 1.3.7 2.7zm-63.9-.4c.8 2.2.8 2.6-.3 1.9-.5-.3-1.6.1-2.4.9-2.1 2.2-2.9.8-1-2 1.8-2.8 2.8-3 3.7-.8zm-7.1 1.4c.4 1.6 0 2-2.3 2s-2.7-.4-2.3-2c.3-1.1 1.3-2 2.3-2 1 0 2 .9 2.3 2zm20.1.5c-.4.8-1 1.5-1.5 1.5s-.9-.7-.9-1.5.7-1.5 1.5-1.5c.9 0 1.2.6.9 1.5zm6.6 1.5c-1.8 1.1-2.4.6-1.6-1.6.5-1.4.9-1.5 1.9-.5.9.9.9 1.4-.3 2.1zm7.4-1.1c.3.5-.1 1.4-.9 2.1-1.3 1-1.5.9-1.5-.9 0-2.1 1.4-2.8 2.4-1.2zm75 1.9c-.3 1.6-.1 4.5.4 6.6 1 3.4.9 3.6-.9 3.1-1.1-.4-2.6-.2-3.3.4-1 .9-1.3-.2-1.4-5.5-.1-5.3.1-6.5 1.3-6 .8.3 1.7.1 2-.4 1.3-2.1 2.4-.9 1.9 1.8zm-29.6 2.8c0 1.6-.5 2.3-1.3 2-.7-.2-1.8.1-2.5.7-.9.9-1.1.6-.8-1.3.2-1.4 1.2-2.8 2.3-3.2 1.1-.3 2.1-.6 2.1-.7.1-.1.2 1.1.2 2.5zm-90.8.6c3.2-.1 4.9 1 5 3.2 0 .5-2.2.6-5 .3s-5.2-.2-5.5.4c-1.1 1.7-2.2 0-1.7-2.6.3-2 .9-2.4 2.1-1.9.9.4 3.2.7 5.1.6zm18 1.2c0 .8-.7 1.6-1.5 2-1 .4-1.5-.1-1.5-1.4 0-1.1.7-2 1.5-2s1.5.6 1.5 1.4zm13.7.3c.4 1.1-2.6 2.7-3.5 1.9-.2-.3-.2-1.2.2-2.1.6-1.8 2.7-1.6 3.3.2zm-12.3 5.9c.4 1 .2 1.3-.6.8-.6-.4-1.7.1-2.5 1.1-1.3 1.9-1.8.9-.7-1.9.8-2 3-2.1 3.8 0zm-21.3.6c1.7 1 2.3 1 2.6 0 .7-1.9 4-1.4 4.6.8.5 1.8 0 2-5.4 2-3.2 0-5.9-.2-5.9-.4s-.3-1.1-.6-2c-.8-2 1.7-2.1 4.7-.4zm63.9 2.2c0 .3-.4.8-1 1.1-.5.3-1 .1-1-.4 0-.6.5-1.1 1-1.1.6 0 1 .2 1 .4zm-8.3 22.8c-.3.8-.6.5-.6-.6-.1-1.1.2-1.7.5-1.3.3.3.4 1.2.1 1.9zM469 426c0 1.2-.8 1.7-2.4 1.7-1.8 0-2.3-.5-2.3-2.2 0-1.8.4-2.1 2.3-1.7 1.5.3 2.4 1.1 2.4 2.2zm77.8-1.3c-.2 1.2-1.1 1.7-2.3 1.5-2.8-.5-3.2-1.2-1.5-2.2 2.4-1.5 4.2-1.1 3.8.7zm8.2-.2c0 .9-.9 1.5-2.4 1.5-1.3 0-2.6-.7-3-1.5-.4-1.1.2-1.5 2.4-1.5 2 0 3 .5 3 1.5zm-80 1c.7.8 1.6 1.5 2.1 1.5s.9-.7.9-1.5c0-1.9 1.4-1.9 3.4.1 2.8 2.8 1.8 3.4-4.6 2.8-3.5-.3-6.4-.7-6.6-.9-.1-.1 0-1 .4-1.9.8-2 2.8-2.1 4.4-.1zm64.4 0c.4 1-.1 1.5-1.4 1.5-2 0-2.6-1.1-1.3-2.3 1-1.1 2-.8 2.7.8zm15 5.2c.4.9.1 2-.6 2.4-.7.5-1.5.4-1.6-.1-.2-.6-.7-.8-1.2-.5-.4.3-1-.4-1.3-1.5-.4-1.6 0-2 1.8-2 1.3 0 2.6.8 2.9 1.7zm8.6.5c0 2.4-3.2 2.3-4.7-.2-1.2-1.7-1-1.9 1.7-1.7 2.1.1 3 .7 3 1.9zm-17.4 1.6c-2.2.5-3-.3-2.1-1.8.5-.8 1.1-.7 2.2.2 1.5 1.2 1.4 1.3-.1 1.6zm-83.8.9c.3 1.9-.1 2.3-2.6 2.3-2.6 0-2.9-.3-2.4-2.6.6-3.3 4.5-3 5 .3zm5.6-2.1c2.7 1 2 4.4-.9 4.4-2 0-2.5-.5-2.5-2.5 0-2.6.7-2.9 3.4-1.9zm8.6 3.1c0 .7-1.1 1.3-2.4 1.3-1.8 0-2.3-.5-2.1-2.3.3-2.9.2-2.9 2.5-1.5 1.1.7 2 1.8 2 2.5zm94.3 1.1c1.7-.9 1.9-.8 1.4.7-.4.9-.7 2.1-.7 2.6 0 1.3-4.4 1.1-5.9-.4-1.1-1-1.4-1-1.8 0-.7 1.8-4.2 1.6-5-.2-.8-2.3.5-3.1 2.7-1.7 1.2.7 2 .8 2 .2 0-.5.7-.7 1.5-.4.9.4 1.5.1 1.5-.7 0-1 .3-1 1.2-.1.8.8 1.7.8 3.1 0zm-16.5 1.8c2.7 1.9 2.1 3.3-1.1 2.7-1.4-.3-2.3-1.2-2.3-2.4 0-2.3.5-2.4 3.4-.3zm-98 3.3c1.2 1.4 1.3 1.4.8-.1-.4-1.4 0-1.7 1.9-1.6 2.3.2 4.2 2.4 3.1 3.6-.3.3-2.5.5-4.8.5-2.4-.1-5 .3-5.8.7-1.3.7-1.6.2-1.6-2.5 0-3.2.2-3.4 2.6-2.8 1.4.3 3.1 1.3 3.8 2.2zm71.4-1.2c2.6 2.4 2.3 2.8-2.2 2.8s-4.7-.1-2.2-2.6c2.1-2.2 2.2-2.2 4.4-.2zm-57.9 1.2c-.3 1.1-1.4 2.2-2.6 2.5-2.6.7-2.8.5-2-2.2.3-1.5 1.3-2.2 2.8-2.2 1.8 0 2.2.4 1.8 1.9zm28.7.1c.6 1.2.7 2 .1 2-.5 0-1.6.3-2.5.6-1.2.5-1.6 0-1.6-2 0-3.1 2.4-3.5 4-.6zm38 7c0 .6-.7 1-1.5 1s-1.5-.2-1.5-.4-.3-1.2-.7-2.1c-.5-1.5-.3-1.6 1.5-.6 1.2.7 2.2 1.6 2.2 2.1zm-45.5 1.3c-.8 3-3.9 3-4.3-.1-.2-1.5.3-2.1 2-2.4 3-.5 3-.5 2.3 2.5zm7.2 3.1c.1 6.1 0 6.3-2.3 6.3-2.8 0-3-1.3-.8-4.5 1.5-2.2 1.5-2.4-.2-3.8-1.8-1.4-1.8-1.4 0-2.9 1.1-.8 2.3-1.5 2.6-1.5.3 0 .7 2.9.7 6.4zm28.9-3.4c.1 1.7-.3 3-.7 3-.5 0-.9-.5-.9-1 0-.6-.7-1-1.5-1-1.8 0-1.9-1.2-.3-2.8 2-2 3.3-1.3 3.4 1.8zm6.4 1.1c0 .5-.7.9-1.5.9-1.5 0-2-1.2-.9-2.3.8-.8 2.4.1 2.4 1.4zm28.8.5c2.6 1.8 2.8 3 .7 3.7-.9.4-1.9-.5-2.9-2.3-1.6-3.4-1.1-3.7 2.2-1.4zm-19.8 3.2c0 1.1-.8 1.7-2.4 1.7-1.7 0-2.1-.3-1.5-1.1.5-.6.6-1.9.3-2.9-.6-1.5-.4-1.6 1.4-.6 1.2.7 2.2 1.9 2.2 2.9zm12.4-3.2c1.7.7 2.2 3.4.7 3.4-.5 0-1.6.3-2.4.6-1.1.4-1.5-.1-1.3-2 .1-2.7.5-3 3-2zm15.6-.2c0 .2.3 1.1.6 2 .5 1.2 0 1.6-1.9 1.6-2 0-2.5-.5-2.4-2 .1-1.2.8-2 1.9-2 1 0 1.8.2 1.8.4zm-116.4 2.1c-.8 2.1.3 4.5 2 4.5.8 0 1.4-.9 1.4-2 0-1.5.7-2 2.9-2 1.7 0 2.8.5 2.7 1.2 0 .7.2 1.4.7 1.5.4.2.7 0 .6-.4-.1-.8 2.8-2.1 4.7-2.2.7-.1.9.9.7 2.4-.5 2.2-1 2.4-5.8 2.4-3-.1-5.8.2-6.3.5s-2.4.1-4.2-.5c-2.1-.8-3.4-.8-3.9-.2-.3.5-1.5 1.2-2.6 1.5-1.1.3-2.8.9-3.7 1.3-2.5 1-2.3-1.6.3-4.4 1.3-1.4 2.9-2.1 4-1.8 1.2.3 1.9 0 1.9-.8 0-1.2 1.5-2 4.4-2.4.4 0 .6.6.2 1.4zm79.8 2.9c-.7 3.1-2.7 3-3.2-.1-.2-1.4.3-2.3 1.5-2.5 2.4-.6 2.5-.4 1.7 2.6zm-49.6-.3c.2 1-.6 1.9-2 2.2-2.8.8-3.2.4-2.3-2.3.8-2.4 3.8-2.3 4.3.1zm6.5.6c.6 3.4.7 3.4-2.1 2.6-2.4-.6-2.8-2.3-1-4.1 1.8-1.8 2.5-1.5 3.1 1.5zm36-1.3c.6 1.6-1.1 3.6-3.1 3.6-.9 0-1.2-.6-.8-1.6.3-.9.6-2 .6-2.5 0-1.4 2.7-1.1 3.3.5zm29.3 4.3c0 1-1 2.1-2 2.6-2.9 1.2-3.4-.3-.7-2.4 2.8-2.3 2.9-2.3 2.7-.2zm-15.6.8c0 .5.5.3 1.1-.5.9-1.2 1-1.2.5.3-.3 1-.6 2.4-.6 2.9 0 .6-.3.8-.7.5-.3-.4-1.2-.2-1.8.3-1 .8-1.4.3-1.7-1.9-.3-2.4-.1-2.9 1.4-2.8 1 .1 1.8.6 1.8 1.2zm25-.2c0 .8-1.1 2.4-2.5 3.7-2.1 2-2.5 2.1-2.5.7 0-2.4 2.2-5.7 3.7-5.7.7 0 1.3.6 1.3 1.3zm-104.2 3.1c.1 1.9-.3 2.3-2.3 2.3-2.9 0-3.2-1.4-.7-3.3 2.4-1.9 2.7-1.7 3 1zm9.2.3c0 2-.3 2.4-1.1 1.6-.9-.9-1.6-.9-3 0-2.4 1.5-3.3.4-1.7-2.2.7-1.2 2.3-2.1 3.5-2.1 1.8 0 2.3.6 2.3 2.7zm13-1.8c0 .5.3 1.6.6 2.5.4 1.1-.2 1.5-2.6 1.4-2.2-.1-2.9-.5-2.5-1.5.3-.8.5-1.9.5-2.4s.9-.9 2-.9 2 .4 2 .9zm7.4 1.3c.8 3.3.8 3.3-1.9 3.3-1.9 0-2.5-.5-2.5-2.1 0-3.9 3.4-4.8 4.4-1.2zm43.6-.1c0 1.4-.5 1.9-1.4 1.6-.7-.3-1.9 0-2.6.6-1 1-1.2.8-.6-.6.3-1 .6-2.3.6-2.8s.9-.9 2-.9c1.4 0 2 .7 2 2.1zm38 3.8c0 1.1-.9 2.1-2.2 2.4-2.8.8-3.2.4-2.3-2.2.8-2.7 4.5-2.8 4.5-.2zm-15.4 2.6c-.2 2-.6 3.8-.9 4.2-.4.3-.2 1.3.3 2.3.8 1.4.5 1.7-1.5 1.7-3 0-3.1-.7-.4-4.1 2-2.6 2-2.6 0-2.6-4.5 0-2.7-4.4 2.1-4.9.3-.1.5 1.5.4 3.4zm-100.6 1c0 2-.5 2.5-2.4 2.5-1.4 0-2.8.5-3.2 1.1-.5.8-.9.8-1.4-.1-.6-1-1.2-1-2.8.2-2 1.3-2 1.4-.2 2.6 1.2.7 2.9.8 4.8.3 2.8-.8 3-.7 3.4 1.9l.4 2.8-6.6-.1-6.6-.2.2-4c.2-2.2.3-5 .3-6.3.1-1.6.7-2.2 2.5-2.2 1.3 0 2.7.6 3 1.2.4 1 .9.8 1.8-.5.7-.9 2.5-1.7 4-1.7 2.3 0 2.8.4 2.8 2.5zm12.4-.3c.9 3.4.8 3.5-2.4 3-3.4-.5-3.7-1.3-1.4-3.6 2.1-2.2 3.1-2 3.8.6zm73.1-1.1c.8 1.3.6 1.5-2.3 2.4-2.2.6-2.3.5-1.3-1.4 1.3-2.3 2.6-2.7 3.6-1zm-58.5.8c0 .5.2 1.6.5 2.4.4 1-.2 1.4-2.5 1.4-3.1 0-3.4-.4-2.4-3.1.6-1.7 4.4-2.3 4.4-.7zm89 3.1c-.6 1.1-.9 2.4-.6 2.9.3.5-.6.8-1.9.8-3.1 0-3.2-2.1-.3-4.1 3.1-2.2 4.1-2 2.8.4zm-104 4.1c0 .4.3 1.4.6 2.2.4 1-.4 1.6-2.5 1.9-3.1.5-3.7-.4-2.5-3.5.5-1.5 4.4-2 4.4-.6zm44.5 3c-1 1.5-2.5 1-1.9-.6.4-.8 1-1.2 1.5-.9.5.3.7 1 .4 1.5zm44.5 25.1c0 2.8-1.3 3.7-2.5 1.8-.4-.6-1-.8-1.5-.5-.5.3-1.1.1-1.5-.5-.4-.6-1.6-.4-3.1.7-2.2 1.4-2.7 1.4-3.5.2-1.3-2.2-1.1-2.9 1-2.9 1.1 0 2.2-.4 2.5-.8.2-.4 2.3-.8 4.5-.8 3.8.1 4.1.3 4.1 2.8zm-17.5 2.8c-3.7.7-3.5.8-2.9-1.7.8-2.9 3.6-3.4 4.9-.8 1 1.8.7 2.1-2 2.5zm-70.1.7c.4.8-.3 1.3-1.9 1.3-2 0-2.5-.5-2.5-2.5 0-2.3.2-2.4 2-1.3 1.1.7 2.2 1.8 2.4 2.5zm6.2-2.2c1.8 1.8 1 3.5-1.5 3.5-1.4 0-1.7-.6-1.3-2.5.5-2.9.8-3 2.8-1zm7.6.6c1.7.9 1.8 1.3.7 2-2.3 1.5-3.9 1-3.9-1.1 0-2.3.4-2.4 3.2-.9zm29.8 2.3c0 .3-.4.8-1 1.1-.5.3-1 .1-1-.4 0-.6.5-1.1 1-1.1.6 0 1 .2 1 .4zm43.7 1.6c.1 1.3-.4 2-1.7 2-2.1 0-3.4-1.5-2.5-3 1.1-1.8 4.1-1.1 4.2 1zm8 4c-.1 5.8-.1 6-2.7 6-2.4 0-2.7-.3-2.2-2.5.3-1.6 1.1-2.5 2.3-2.5 1.1 0 1.9-.5 1.9-1 0-.6-.8-1-1.9-1-1 0-2.1-.9-2.4-1.9-.6-2.4 0-3.1 2.9-3.1 2 0 2.2.5 2.1 6zm-14.9-2.7c.3 1.2-.3 1.7-2.2 1.7-2.8 0-2.9-.1-2-2.5.8-2 3.8-1.5 4.2.8zm-88.2 2.8c.7 1.2-1.5 3.1-2.8 2.3-.4-.3-.8-1.2-.8-2 0-1.7 2.6-1.9 3.6-.3zm6.8-.5c2.3.9 2 3.4-.4 3.4-1.1 0-2-.2-2-.4s-.3-1.1-.6-2c-.6-1.7.4-2 3-1zm9.2 1.3c-.1 2-1.5 3.1-4 3.1-1.5 0-1.7-.3-.9-1.1.6-.6.9-1.7.7-2.4-.3-.8.4-1.3 1.9-1.3 1.6 0 2.4.6 2.3 1.7zm78.4.5c0 .8.3 2.1.6 2.9.4 1-.2 1.4-2 1.4-2.2 0-2.6-.4-2.6-2.8 0-2.2.5-2.9 2-2.9 1.1 0 2 .6 2 1.4zm16.8 2.8c-.1 2.4-.5 2.8-2.6 2.5-2.3-.3-4.5-3.2-3.6-4.8.2-.3 1.6-.6 3.3-.6 2.6 0 2.9.4 2.9 2.9zm-44 2.8c.1 1-.6 1.5-2.3 1.6-2.4.2-3.3-1.4-1.8-3 1.1-1.1 3.8-.2 4.1 1.4zm10.2-1c0 .5-.4 1-1 1-.5 0-1-.5-1-1 0-.6.5-1 1-1 .6 0 1 .4 1 1zm-84 .4c0 .2.3 1.1.6 2 .5 1.2 0 1.6-2 1.6-1.9 0-2.6-.5-2.6-2 0-1.3.7-2 2-2 1.1 0 2 .2 2 .4zm7.7 1.5c1 1.6.9 2-1.2 2.4-3 .5-3.4.1-2.8-2.4.7-2.4 2.5-2.4 4 0zm6.1-.7c1.7 1.7 1.5 2.8-.7 2.8-1.4 0-1.9-.6-1.8-2 .1-2.3.8-2.5 2.5-.8zm30.2.2c0 1.3-2.9 3.1-3.7 2.3-.2-.2-.1-1.2.3-2.1.8-2 3.4-2.1 3.4-.2zm29.5 6.3c.3 2.7.1 3-2.1 2.5-2.9-.5-3-1.1-.7-3.9 2.1-2.6 2.3-2.4 2.8 1.4zm6.9-1.1c1 2.7.7 3.1-1.8 2.7-3.3-.7-4.3-4.3-1.1-4.3 1.3 0 2.6.7 2.9 1.6zm-38 0c2.4.9 2 4.4-.4 4.4-1.5 0-2-.7-2-2.5 0-2.7.1-2.8 2.4-1.9zm-5.1 1.8c.4.9-.3 1.6-1.9 1.9-2.6.5-3.1-.2-1.2-2.1 1.6-1.6 2.5-1.5 3.1.2zm80.3 3.3c.1 1.3-.4 2.3-1.1 2.3-.7 0-2 .3-2.9.6-1.1.4-1.5-.1-1.4-2.4.1-2.4.5-2.9 2.7-2.9 2 0 2.6.6 2.7 2.4zm-14.4 4.5c.2 3.5.2 6.7-.1 7.3-.9 1.8-.9 3.5 0 4.1 1.8 1.1.8 2.1-1.8 2-2.7-.1-2.8-.3-2.8-5.8 0-4.7.3-5.8 1.9-6.2 2.1-.6 1.6-3.2-.6-2.8-1 .1-1.7-.7-2-2.3-.5-2.2-.2-2.5 2.2-2.5 2.7 0 2.8.2 3.2 6.2zm6.8-4.1c0 .9-.7 2-1.6 2.3-2 .8-1.9.8-2.8-2.1-.6-2-.4-2.3 1.8-2.1 1.7.2 2.6.8 2.6 1.9zm-21.9.1c.1.7.2 3.6.3 6.4.1 4.9 0 5.1-2.6 5-3.3-.1-3.3 0-1.1-3.3 1.3-1.9 1.4-2.8.5-3.1-1.6-.5-1.6-4.9.1-5.5 2-.9 2.7-.8 2.8.5zm-57.9 2c-.8 3.4-4.2 5.3-4.2 2.4 0-1 3.1-4 4.7-4.5 0-.1-.1.9-.5 2.1zm43.5-.8c-.3.7 0 1.9.6 2.5 1.5 1.5.7 2-2.5 1.4-3.2-.6-3.5-1.5-1.2-3.7 1.9-2 3.8-2.1 3.1-.2zm7.1 1.1c1.1 2.3.9 2.5-1.2 2.5-2.9 0-3.5-.6-2.9-3.1.7-2.7 2.8-2.4 4.1.6zm-43.5.8c-.3 1.4-1.2 2.3-2.4 2.4-2.2.2-2.3-.1-.9-2.8 1.5-2.7 3.8-2.5 3.3.4zm-43.5-.1c2 2 1.3 3.3-1.8 3.3-2.4 0-2.9-.4-2.7-2.3.2-2.4 2.5-3 4.5-1zm15.1-.2c.4 0 .8.7.8 1.5 0 1.2-1.2 1.5-5.1 1.4-2.8-.1-5.5 0-6.1.2-1 .4-1.5-.3-1.5-2.2 0-.7 1.4-.8 4-.4 2.8.5 4 .3 4-.5 0-.7.7-1 1.6-.6.9.3 1.9.6 2.3.6zm7.3 1.4c.5.7-.1 1.2-1.4 1.4-1.9.3-3.7-1.2-3.8-3.1 0-1.1 4.3.3 5.2 1.7zm27.3-1.4c-.4.6-.1 1.7.5 2.5 1 1.2.9 1.5-.3 1.5-.8 0-2-.6-2.6-1.4-1-1.1-.8-1.7.6-2.5 2.3-1.3 2.6-1.3 1.8-.1zm66.8 4.2c.8 2.8.7 2.9-2.8 2-1.9-.6-2.5-1.1-1.7-1.6.7-.4 1-1.2.7-1.7-.4-.5.3-.9 1.3-.9 1.2 0 2.2.9 2.5 2.2zm-29.6 1c-.2.7 0 2.1.5 3 .7 1.5.4 1.8-1.7 1.8-2 0-2.5-.5-2.5-2.4 0-2.2 1-3.3 3.3-3.5.5-.1.7.5.4 1.1zM464 543c.9 1.7.8 2-1.4 2-1.9 0-2.3-.4-1.9-2 .3-1.1.9-2 1.4-2 .4 0 1.3.9 1.9 2zm22-1.6c0 1.8-1.5 3.6-3.1 3.6-1.8 0-2.6-2-1.2-3.3.7-.8 4.3-1 4.3-.3zm6 2.2c0 3.1-2.3 2.8-2.8-.4-.2-1.5.2-2.2 1.2-2.2 1.1 0 1.6.9 1.6 2.6zm-21-.3c0 .7-.9 1.3-1.9 1.4-1.4.1-1.8-.3-1.4-1.3.6-1.7 3.3-1.9 3.3-.1zm103.2 2.1c1.3 1.8.3 3.1-2.7 3.4-2.2.3-2.6 0-2.2-1.2.3-.8.2-1.8-.3-2.1-.6-.4-1-1.1-1-1.6 0-1.2 5.3 0 6.2 1.5zm-31.2 1.5c0 .5.3 1.7.7 2.7.5 1.4.3 1.6-1.2 1.1-.9-.4-2.4-.2-3.1.4-1.5 1.2-1.7.6-.8-2.9.6-2.1 4.4-3.3 4.4-1.3zm-94.2 2.3c1.4 1.4 1.6 4.2.3 3.3-.5-.3-1.2-.1-1.6.5-1.2 1.9-2.2 1-2.1-2 .1-3.1 1.4-3.8 3.4-1.8zm8.5 1.9c.4 1.6 0 1.9-2.5 1.9-2.3 0-2.9-.4-2.4-1.6.3-.9.6-1.9.6-2.4 0-1.6 3.8.2 4.3 2.1zm13.7-1.3c0 1.1-.7 1.8-2 1.8-2.3 0-2.5-.7-.8-2.4s2.8-1.5 2.8.6zm13.4-.2c1 2.6.7 3.2-1.3 2.7-1.3-.3-1.7-1.1-1.4-2.4.6-2.3 1.9-2.5 2.7-.3zm76.6 4.5c0 1.7-1.9 2.9-4.5 2.9-.7 0-1.2-1.1-1.2-2.4 0-2.1.4-2.5 2.8-2.3 1.9.1 2.9.7 2.9 1.8zm-110.7 3.7c.3 1.4 0 2.1-.7 1.9-.6-.2-1.9 0-2.8.4-1.4.8-1.6.5-1.3-1.9.2-1.5.4-2.7.4-2.7.1-.1 1-.1 2-.1 1.2 0 2.1.9 2.4 2.4zm20.7-.8c0 1.3-.5 1.8-1.5 1.4-.8-.4-1.5-.1-1.5.7 0 .7-.3 1-.6.6-.3-.3-.3-1.5.1-2.6.8-2.7 3.5-2.7 3.5-.1zm-14.4.7c1.6 1.6 1.5 1.8-1.2 2.5-3.4.9-3.5.8-2.7-2 .6-2.6 1.6-2.8 3.9-.5zM559 582.6c0 1.6-1.6 3.4-3.1 3.4-1 0-1.9-.2-1.9-.4s-.2-1-.5-1.8c-.4-.9.4-1.3 2.5-1.4 1.6-.1 3 0 3 .2zm-88.6 1.4c3.2 1.2 3.4 3.6.4 4.4-3.4.9-3.5.8-3.5-2.4 0-1.7.2-3 .3-3 .1 0 1.4.4 2.8 1zm8.3.4s.3 1 .5 2.1c.2 1.5-.3 2-2.1 2-1.9 0-2.4-.5-2.5-2.7-.1-2.4.1-2.7 1.9-2.2 1.1.4 2.1.7 2.2.8zm64.6.8c.4 1.4-.1 1.8-1.9 1.8-1.7 0-2.4-.6-2.4-1.9 0-2.5 3.7-2.4 4.3.1zm7-.3c-.6 2.3-2.5 3.2-4.3 2.1-1-.6-1-1.1.1-2.4 2-2.3 4.8-2.1 4.2.3zm-63.9 2.7c.3.7-.7 1.5-2.1 1.9-3.1.7-3.2.6-2.6-2.7.4-2.3.8-2.5 2.4-1.5 1 .6 2.1 1.7 2.3 2.3zm26.6 1.5c0 1.8-1.8.9-2.3-1.2-.4-1.6-.3-1.8.9-.8.8.6 1.4 1.5 1.4 2zm12.2-.9c-.7.7-1.2.8-1.2.2 0-1.4 1.2-2.6 1.9-1.9.2.3-.1 1.1-.7 1.7zm39.3.8c1.6-1.3 2-.3.9 2.4-1.3 3.3-5.4 1.3-5.4-2.6 0-.6.6-.6 1.5.2 1.2 1 1.8 1 3 0zm-6.5 2c0 1.3-.7 2-2 2s-2-.7-2-2 .7-2 2-2 2 .7 2 2zm-93.4 1.4c.1 1.9-.4 2.5-2.5 2.8-2.5.4-2.8.1-2.8-2.4 0-2.3.5-2.8 2.6-2.8 2 0 2.6.5 2.7 2.4zm6.4-1.4c.4 0 1 1.2 1.3 2.6.3 1.9.1 2.4-1 2-.8-.3-2-.6-2.6-.6-.7 0-1.2-1.1-1.2-2.5 0-1.7.4-2.4 1.3-2 .8.3 1.7.5 2.2.5zm79.4.5c.4 1.1-.1 1.5-1.9 1.5-2.4 0-3.2-1-1.8-2.3 1.1-1.2 3.1-.8 3.7.8zm-71.9 1.1c1.8 1.8 1.2 2.8-2.4 3.9-2 .6-2.3.4-1.8-1 .4-.9.7-2.3.7-3.1 0-1.9 1.5-1.8 3.5.2zM532 594c0 .5-.4 1-1 1-.5 0-1-.5-1-1 0-.6.5-1 1-1 .6 0 1 .4 1 1zm26 1.9c0 .5.3 1.7.7 2.7.5 1.4.2 1.6-1.7 1.1-1.3-.3-3-.1-3.7.5-2.2 1.8-1.6-.9.7-3.2 2.1-2.1 4-2.6 4-1.1zm15.2 1.8c-.6 3-4.7 3.2-5.5.4-.6-2.5-.3-2.8 3.1-2.7 2.4.1 2.8.5 2.4 2.3zm-8.2.9c0 2.7-.3 2.8-3.1 1.4-2.7-1.5-2.4-3.8.6-3.8 2 0 2.5.6 2.5 2.4zm-108.5.1c0 .6.3 1.5.8 1.9 1.5 1.6.6 2.4-2.9 2.4-3.2 0-3.5-.2-2.8-2.3 1-3.4 4.9-5 4.9-2zm7.7 1.5c1.5 2.2 4.4 1.7 3.4-.7-.3-.8.4-1.2 2-1.1 3.4.2 3.1 3.2-.3 4.3-1.6.4-4.4.7-6.4.5-3.2-.3-3.6-.6-3.1-2.8.5-3 2.5-3.1 4.4-.2zM530 599c0 1.7-3.8 5.3-4.8 4.6-1.5-.9-.3-4.4 1.7-4.9 2.8-.8 3.1-.7 3.1.3zm-29.3 1.7c.2.6-.5 1.7-1.6 2.3-1.9 1-2.1.8-2.1-1.5 0-1.9.5-2.6 1.7-2.3.9.2 1.8.8 2 1.5zm-7.9 7c.2 1.4-.4 2.2-2 2.6-3 .8-3.4.2-1.8-2.8 1.6-2.9 3.4-2.8 3.8.2zm43.6-1.1c.9 2.3.8 2.4-1.3 2.4-1.4 0-1.8-.5-1.4-2 .6-2.4 1.9-2.6 2.7-.4zm-36.7 1.9c-1.4 2.9-3.7 3.3-3.7.6 0-1.9 1.2-2.9 3.7-3 .8-.1.8.5 0 2.4zm28-1.1c-.3.7 0 1.9.6 2.5.8.8.4.9-1.3.6-3.1-.6-4.4-2.8-2.2-3.7 2.7-1.1 3.5-.9 2.9.6zm43.9 3.3c-.4.9-.1 2 .6 2.4 1.9 1.2.6 1.8-2.4 1.2-3.2-.6-3.9-3.9-1-4.6 3.1-.8 3.4-.7 2.8 1zm-28.3 2.5c-.7 3.5-3.3 3.7-3.3.4 0-1.5.7-2.6 1.8-2.8 2.2-.5 2.1-.7 1.5 2.4zm14.3-1c-.1 2.9-3.2 3.6-3.9.9-.4-1.8.2-2.4 3.4-3 .4 0 .6.9.5 2.1zm7.1-.2c.8 1.2.9 2.1.3 2.5-1.4.9-5-1.3-5-3 0-2.2 3.3-1.8 4.7.5zm-29.3-.4c2.4.9 1.9 3.8-.9 5.1-2.4 1.1-2.5 1-2.2-2.3.2-3.5.5-3.8 3.1-2.8zm-85.1 2.4c.6 2.2-.6 3.3-3.9 3.7-1.8.3-2.1-.2-2-2.7.1-2.5.5-3 2.7-3 1.8 0 2.8.6 3.2 2zm6.2.7c0 2.1-.5 2.7-2.9 3-2.3.3-2.7.1-2.2-1.2.3-.9.6-2 .6-2.5s1-1.1 2.3-1.3c1.2-.2 2.2-.5 2.2-.6.1 0 .1 1.1 0 2.6zm7.3-.3c1 2.3.9 2.4-2.3 2.4-2.7 0-3.2-.3-2.8-1.7.6-1.6 2.2-3.1 3.4-3.1.3 0 1.1 1.1 1.7 2.4zm8.2.1c-.1 4.9-3.3 5.2-4.5.5-.5-2.2-.3-2.5 2-2.5 1.8 0 2.5.5 2.5 2zm12.4-1.9c2.2.9 2 2.7-.5 4.2-2.6 1.7-3.2 1.1-2.3-2.2.7-2.9.6-2.8 2.8-2zm8.6 3.5c0 1.4-.7 1.9-2.5 1.9s-2.5-.5-2.5-1.9c0-1.1.8-2.1 1.8-2.4 2.4-.5 3.2.1 3.2 2.4zm7.1-1.2c-.6 1-.7 2.1-.4 2.5.3.3-.6.6-2 .6-2.9 0-3.5-1.8-1.5-3.8.7-.7 2-1.2 3-1.2 1.5 0 1.7.4.9 1.9zm28-1.2c0 .5.2 1.5.4 2.4.2 1.2-.4 1.6-2.1 1.5-2.6-.1-3.1-1.5-1.2-3.4 1.4-1.4 2.8-1.6 2.9-.5zm30.9 5.4c0 1.1-.5 2.9-1 4-.6 1.1-.7 1.9-.1 1.9 2 0-.2 3.8-2.5 4.3-3.2.6-3.5 0-1.6-3.4 1.4-2.3 1.4-3.1.4-3.7-1.6-1-.5-4.2 1.4-4.2.8 0 1.4-.5 1.4-1.1 0-.5.5-.7 1-.4.6.3 1 1.5 1 2.6zm7 1.6c0 .7-.9 1.3-2 1.3-1.5 0-2-.7-2-2.5 0-2.3.2-2.4 2-1.3 1.1.7 2 1.8 2 2.5zm-101 1.4c0 1.2-.5 1.6-1.4 1.3-.8-.3-1.7-.1-2.1.5-.3.6-1.1 1.1-1.7 1.1-.7 0-.6-.5.2-1.5.6-.8.9-2.3.5-3.5-.6-1.9-.4-1.9 1.9-.9 1.4.7 2.6 2 2.6 3zm4.4-2.5c2.4.9 2 4.4-.4 4.4-1.5 0-2-.7-2-2.5 0-2.7.1-2.8 2.4-1.9zm16.1.4c-.3.5-.2 2.6.4 4.5.6 2.3.6 3.7-.1 4.1-.5.3-.7 1.2-.4 2 .4 1-.2 1.4-1.9 1.4-2 0-2.5-.5-2.5-2.4s.4-2.3 2-1.9c2.9.8 2.5-1.6-.5-2.7-3.1-1.2-3.2-3.8-.2-5 3-1.2 3.9-1.2 3.2 0zm50.3 1.5c-.2 1.7-.8 2.5-2 2.5-2.2 0-2.3-1.4-.2-3.4 2.1-2.2 2.4-2 2.2.9zm7.5-.2c-.3 1.4-1.2 2.3-2.5 2.4-1.4.1-1.8-.3-1.4-1.3.3-.9.6-2 .6-2.5s.8-.9 1.9-.9c1.4 0 1.7.6 1.4 2.3zm-50.8.1c1.1 1.1 1.1 1.7.2 2.9-1 1.4-1.4 1.4-3.1.2-1.1-.8-1.6-2.1-1.3-3 .8-1.9 2.4-1.9 4.2-.1zm81.1 5.2c-.1 1.5-.8 2.1-2.2 2.1-1.6 0-2.1-.5-2-2.2.1-1.6.7-2.2 2.2-2.1 1.5.1 2.1.7 2 2.2zm-120.8 1c3.6.6 4.2 1 4.2 3 0 1.7-.6 2.4-1.9 2.4-1.1 0-2.2-.4-2.5-.9-.8-1.2-4.2-.3-5.7 1.5-.9 1.1-.7 1.4.9 1.4 2 0 3.7 2.4 2.7 4-.3.4-1.8 1-3.3 1.2-2.8.4-2.9.2-2.7-3.1.1-2 .5-4.6.9-5.8.4-1.2.2-2.4-.4-2.8-1.9-1.2-1-2.7 1.3-2.1 1.2.3 4.1.9 6.5 1.2zm18.6 2.3c.9 1.2.7 1.3-.8.8-1-.4-2.5-.2-3.3.4-1.8 1.5-2.7.6-1.8-2 .6-2.1 3.8-3.3 4.4-1.6.2.5.9 1.6 1.5 2.4zm71.6-2c0 1.9-3.6 3.6-4.5 2.1-.6-.9 2.2-4 3.6-4 .5 0 .9.8.9 1.9zm30 4c1.6 3 1.2 3.7-1.7 3.5-2 0-2.8-.6-2.8-2-.1-3.5 2.9-4.4 4.5-1.5zm-14 2.1c0 2.5-.4 3-2.5 3-4.5 0-2.8-4.3 2.3-5.9.1-.1.2 1.2.2 2.9zm-87.9 3.1c.7 1.4.2 1.8-2.6 2.1-3.1.4-3.4.2-2.9-1.7.8-2.8 3.7-5 4.3-3.3.2.7.7 2 1.2 2.9zm-14.1.6c0 3.2-3.6 3.1-4.2-.1-.4-2-.1-2.3 1.9-2.2 1.7.1 2.3.7 2.3 2.3zm100.6 26c-.1 2.9-1.9 2.9-4.5.2-1.9-2.1-1.9-2.1-2.5-.1-.9 2.8-3.4 3.5-4.6 1.2-1.1-2 .2-3.6 1.9-2.5.5.3 1.2.2 1.5-.3.2-.4 2.2-.8 4.4-.8 3.5.1 3.9.4 3.8 2.3zm-15.3 1.3c.4 1.6 0 2-1.9 2-1.7 0-2.4-.6-2.4-2 0-1.3.7-2 1.9-2 1 0 2.1.9 2.4 2zm-71.8.4c1.7 1.7.9 2.6-2.2 2.6-1.6 0-2.3-.6-2.3-2 0-2.3 2.5-2.7 4.5-.6zm5.6-.4c2.7 1.5 2.4 3-.6 3-1.8 0-2.5-.5-2.5-2 0-2.3.4-2.4 3.1-1zm9.1 2.6c-.4 1-3.3.6-4.6-.6-.4-.5-.5-1.3-.1-2 .8-1.3 5.2 1.1 4.7 2.6zm65 2.8c.4 1.9 0 2.5-1.9 2.9-1.9.3-2.3 0-2.3-1.9 0-1.3.7-2.4 1.8-2.7.9-.3 1.8-.5 1.8-.6.1 0 .4 1 .6 2.3zm12.5-1.5c3.1-1.2 3.4-1 2.6 1.9-.6 2.6-3.5 2.9-5.7.6-1.5-1.4-1.6-1.4-1.6 0 0 2.7-3.5 1.9-3.6-.8-.2-2.2.1-2.3 2.8-1.5 1.7.5 4 .4 5.5-.2zm-93.1 2.2c.3.6 1.9.9 3.4.6 2.8-.6 5 .7 5 3 0 1.9-2 1.6-3.6-.5-.8-1-1.3-1.2-1.4-.5 0 .7-.7 1-1.5.7-.8-.4-1.5-.1-1.5.5s-.9 1.1-2 1.1c-2.2 0-2.3-.3-1.4-3.8.7-2.4 1.9-2.9 3-1.1zm-7.9.5c3.5.9 3.8 3.4.4 3.4-2 0-3-.6-3.4-2-.6-2.2-.3-2.3 3-1.4zm103.4 6.2c-.4.9-.6 2.3-.3 3.1.3 1 0 1.2-1.2.8-1-.4-2.2-.7-2.7-.7s-.9-1.1-.9-2.4c0-1.8.6-2.6 2.3-2.8 3.1-.5 3.9 0 2.8 2zm8.9-1.9c0 .6-.5 1.3-1.1 1.6-.6.4-.8 1.3-.5 2.1.6 1.7-.8 1.8-3.5.4-2.8-1.5-2.3-3.8.9-4.3 1.5-.2 3-.5 3.5-.6.4 0 .7.3.7.8zm-16.7 2.3c.8 2.8.5 3-2.6 2.6-2.1-.3-2.3-.6-1.6-2.6 1.1-2.8 3.5-2.9 4.2 0zM457 681.1c0 3-4.5 2.6-4.6-.4-.1-2 .2-2.3 2.2-1.9 1.5.3 2.4 1.1 2.4 2.3zm15-1.4c.3.3-.4 1.1-1.5 1.9-1.7 1.3-2 1.3-2.7-.3-1.1-3-.9-3.5 1.5-2.7 1.2.3 2.4.9 2.7 1.1zm29 4.4c0 .5-.7.6-1.5.3-.9-.4-1.5 0-1.5 1 0 .9.7 1.6 1.5 1.6 1.3 0 1.4.4.5 2-.6 1.1-2 2-3.1 2-1.9 0-2-.4-1.4-3.6.4-2.6.2-3.9-.7-4.5-1.1-.7-1-1.1.2-1.9.8-.5 1.1-1 .5-1.1-.5 0-.1-.4 1-.8 1.5-.6 2.2-.2 3.2 1.7.7 1.3 1.3 2.8 1.3 3.3zm27.5-2.5c.1 2.2-.2 2.4-2.5 1.9-3.1-.8-3.2-.9-2.4-2.8.5-1.5 3.3-2.8 4.3-2 .3.2.5 1.5.6 2.9zm-64.2-.6c.4 1.5 0 2-1.4 2-1 0-2.2.1-2.6.2-.3.2-.7-.7-.8-2-.2-2.9 4-3.2 4.8-.2zm28.5 8.4c.3 1.3-.2 1.7-2 1.4-1.5-.2-2.3-1-2.4-2.5-.1-1.8.2-2 2-1.4 1.2.5 2.3 1.6 2.4 2.5zm35.4-.4c.4 2.4.1 3-.9 2.5-.8-.3-2.1-.5-2.9-.5-1.8 0-1.8-1.5.2-3.4 2.3-2.3 3.1-2 3.6 1.4zm7.4 2.8c-.1 5.5-.2 5.7-2.6 5.6-1.9-.1-2.4-.6-2.2-2 .2-1 1-2.3 1.8-2.7 1.8-1.1 1.8-2.7-.1-2.7-.8 0-1.5-.9-1.5-2 0-1.4.7-2 2.3-2 2.2 0 2.3.4 2.3 5.8zm29.9-.2c0 1.8-.4 2.4-1.6 2.1-.9-.2-2.4 0-3.3.5-1.3.7-1.6.4-1.6-1.5 0-3 .7-3.7 3.9-3.7 2.1 0 2.6.5 2.6 2.6zm-7.5-.3c0 2.2-2.6 5.1-3.8 4.3-1.8-1.1-1.4-4.4.6-4.9 2.9-.8 3.2-.7 3.2.6zm-15 2.7c0 2.5-.4 3-2.5 3-3.4 0-3.6-4.6-.2-5.3 1.2-.2 2.3-.5 2.5-.6.1 0 .2 1.2.2 2.9zm-94.6.1c3.3 2.6 2.9 4.3-1.1 4.5-2.9.1-3.1-.1-3-3.2.1-4 .5-4.1 4.1-1.3zm9.6 1.9c0 .9-2.4 2-4.3 2-.7 0-1.2-1.3-1.3-2.9-.1-2.8-.1-2.8 2.8-1.4 1.5.8 2.8 1.8 2.8 2.3zm5.3-1.7c1.8.7 2.4 2.7.8 2.7-.5 0-1.6.3-2.5.6-1.3.5-1.6-.1-1.6-2.7 0-1.9.4-2.9.8-2.3.4.6 1.5 1.3 2.5 1.7zm7.7 1.2c0 2.7-3.5 1.7-3.6-1-.2-2.1.1-2.3 1.7-1.4 1 .5 1.9 1.6 1.9 2.4zm14 .1c.7 1.7.7 3.1.1 3.8-.6.7-.8 2.1-.5 3.2.4 1.5 0 1.9-2 1.9-3.1 0-3.3-1.8-.8-4.3 1.7-1.7 1.7-2 .4-2.9-.9-.5-1.3-1.6-.9-2.6.9-2.5 2.6-2.1 3.7.9zm5.9.5c-1.3 2.6-2.4 2.4-2.5-.5-.1-1.8.2-2.2 1.7-1.9 1.5.4 1.6.9.8 2.4zm37.1-.2c0 2.5-.3 2.8-2.5 2.3-2.7-.5-3.2-2.1-1.3-4 2.1-2.1 3.8-1.3 3.8 1.7zm-28.7.7c-.6 1.7-3.4 1.5-4-.3-.2-.6.4-1.3 1.4-1.5 2.5-.6 3.3 0 2.6 1.8zm13.2-.7c.3.5.1 1.2-.5 1.6-.5.3-1-.1-1-.9 0-1.8.6-2.1 1.5-.7zm52.8 3.9c.6 3.1.5 3.2-2.3 3-2.5-.2-3-.6-3-2.9 0-2.1.6-2.8 2.3-3.1 1.2-.2 2.2-.4 2.3-.3.1 0 .4 1.5.7 3.3zm-8.3.1c0 1-.7 2.2-1.6 2.5-2.3.9-2.4.8-2.4-1.9 0-1.8.5-2.5 2-2.5 1.3 0 2 .7 2 1.9zm-15 0c0 .5.2 1.5.5 2.3.3.8-.3 1.3-2 1.4-2.6.2-2.9-.3-1.9-3 .7-1.7 3.4-2.2 3.4-.7zm-71 1.7c0 1-.6 1.4-1.4 1.1-.8-.3-1.7.1-2 .9-.3.9-1 1.3-1.6.9-1.4-.9 1.1-4.5 3.2-4.5 1 0 1.8.7 1.8 1.6zm64 .9c0 1.8-.5 2.5-2 2.5-3.5 0-2.4-4.5 1.3-4.9.4-.1.7 1 .7 2.4zm-71-.1c0 1.3-2 2.6-4.1 2.6-1.4 0-.6-2.4 1.1-3.2 2.3-1 3-.9 3 .6zm28 1c0 1.9-.4 2.3-2 1.9-3-.8-2.5-4.3.7-4.3.7 0 1.3 1.1 1.3 2.4zm77.5.6c.4.6 1.5.8 2.4.5 1.5-.4 1.7 0 1.3 2.5-.3 2.2-1 3-2.6 3.1-1.5.1-1.6.3-.5.6 1 .2 1.9 1.7 2.1 3.4.4 2.3.1 2.9-1 2.4-.8-.3-2.1 0-2.8.6-1.1.9-1.3-.2-1.1-6.5.2-7.2.8-8.9 2.2-6.6zm-11.5 3.7c0 2.3-.4 2.8-2.5 2.8-2.7 0-3.4-2.2-1.3-4.3 2.1-2.1 3.8-1.4 3.8 1.5zm-15 .3c0 3.1-.3 3.5-3.2 3.8-3.8.4-3.6-3.6.2-5.1 2.6-.9 3-.8 3 1.3zm-90.2.3c3.3 0 4.2.4 4.2 1.7 0 2-4.8 3.4-6.5 2-.6-.5-2.1-.1-3.5 1-2.5 1.9-2.5 2-.3 2 1.2 0 2.5.5 2.8 1 .4.6 1.2.7 1.8.3 2.3-1.4 4.7-1 4.7.8 0 2-4.2 3.8-4.8 2-.5-1.4-3.2-1.5-3.2-.1 0 .5-1 1-2.2 1-2.1 0-2.3-.5-2.1-4.2.1-2.4.2-4.5.3-4.8.1-.3.1-1.4 0-2.4-.1-1.5.2-1.7 2.2-1.1 1.2.4 4.2.8 6.6.8zm18.2.6c0 .5-.7 1.7-1.6 2.6-1.9 1.9-3.8.7-2.8-1.8.6-1.8 4.4-2.4 4.4-.8zm13 0c0 .5.3 1.7.7 2.6.5 1.4.2 1.6-1.8 1-3.1-1-3.3-1.1-2.6-3 .7-1.6 3.7-2.1 3.7-.6zm73 5.5c0 1.7-.7 2.5-2.6 2.9-1.9.3-2.4.1-2-1 .3-.8.6-1.8.6-2.3 0-.5.8-1.1 1.8-1.3.9-.3 1.8-.5 2-.6.1 0 .2 1 .2 2.3zm-87.4 1.2c-.3.9-.6 2-.6 2.5s-.9.9-2 .9c-2.5 0-2.6-2.5-.2-3.9 2.5-1.5 3.5-1.3 2.8.5zM518 740c0 .5-.4 1-1 1-.5 0-1-.5-1-1 0-.6.5-1 1-1 .6 0 1 .4 1 1zm22.6 3.9c.1 2.5-.2 2.8-2.7 2.7-3.5-.1-3.7-1.8-.6-3.9 3-2.2 3.2-2.1 3.3 1.2zm-75-1.1c.6.4 1.6 1.7 2.3 2.9 1.1 2.1.9 2.2-1.9 2-2.6-.2-3-.6-3-3 0-2.8.6-3.2 2.6-1.9zm81.3.1c.8.5 1.1 1.6.7 2.6-.5 1.4-.9 1.5-2.1.5-1.6-1.3-2.1-4-.7-4 .4 0 1.3.4 2.1.9zm9.3 1c-.8 2.3-2.5 3.1-3.9 1.9-2.2-1.8-1.4-3.5 1.6-3.5 2.2 0 2.8.4 2.3 1.6zm-80.1 1.3l2.2 2.3-.6-2.3c-.3-1.2-.1-2.2.5-2.2 2.2 0 4.8 2.2 4.8 4.1 0 1.9-.4 2-4.2 1.5-2.4-.4-5.2-.7-6.4-.7-1.6-.1-2-.6-1.6-2.5.5-3 2.5-3.1 5.3-.2zm-15.7 6.3c2.8 3 3.6 3.1 3.6.5 0-1.1.5-2 1.2-2 1.3 0 4.8 2.9 4.8 4 0 .3-3.4.6-7.5.7-6.1 0-7.3-.3-6.4-1.4.9-.9.8-1.7-.1-2.8-2.2-2.7 1.8-1.8 4.4 1zm102.9-.4c-.7 2.5-4.6 2.2-5.1-.4-.3-1.3.3-1.7 2.6-1.7 2.5 0 2.9.3 2.5 2.1zm-8.9.5c.4.9.4 1.9.1 2.3-.8.7-3.8-1.2-4.3-2.7-.6-1.9 3.5-1.4 4.2.4zm-78.6 1.9c-.2 1.2-1.2 2.1-2.5 2.3-1.9.3-2.3-.1-2.3-2.1s.5-2.5 2.5-2.3c2 .1 2.5.6 2.3 2.1zm72-1.3c-.7 1.9-3.5 2.1-3.5.3 0-.8.9-1.5 2-1.5 1 0 1.7.5 1.5 1.2zm-15.3.7c.3.5.1 1.2-.5 1.6-.5.3-1-.1-1-.9 0-1.8.6-2.1 1.5-.7zm35 3.1c.3.5 1.2.7 2 .3 1.7-.6 1.8-.2.9 2.1-.6 1.7-4.4 2.3-4.4.7 0-.5-.3-1.6-.6-2.5-.7-1.7 1.1-2.2 2.1-.6zm-5.2 2c.6 2.4-1.5 2.7-3.7.4-2.1-2.1-2-2.4.8-2.4 1.5 0 2.6.7 2.9 2zm-108 2.3c1.7 2 1.7 2 1.7-.1 0-1.5.6-2 2-1.9 1.1.1 2 .4 2 .8s.3 1.5.7 2.5c.6 1.5.1 1.6-3.7 1.1-2.4-.3-5.2-.1-6.2.4-1.6.9-1.8.7-1.2-1.5.4-1.7.2-2.6-.6-2.6-.6 0-.9-.4-.5-1 .8-1.2 3.6-.1 5.8 2.3zm100.5-2.1c-.3.7-1.4 1.4-2.6 1.6-1.6.3-2-.1-1.6-1.2.7-1.9 4.8-2.2 4.2-.4zm-85.8 1.4c-.7.7-.9 1.8-.5 2.4 1 1.6-2.2 1.2-3.9-.6-2.4-2.4-1.9-3.2 1.9-3.2 2.9 0 3.4.3 2.5 1.4zm28 .5c0 1.6-1.9 2.9-4.1 2.9-.9 0-1.3-3.3-.4-4.1 1.2-1.2 4.5-.3 4.5 1.2zm28.8 3.9c-.2 4.9-.6 6-2 6-2.1 0-2.4-3-.5-4.9 1-1.1 1-1.4 0-1.8-.7-.3-1.3-.8-1.3-1.3 0-.9 2.8-4 3.6-4 .3 0 .4 2.7.2 6zm-35.8 4.1c0 1.2-.7 1.9-2 1.9-1.4 0-2-.7-2-2.4 0-1.9.4-2.3 2-1.9 1.1.3 2 1.4 2 2.4zm7.7-.5c.9 1.9.9 3.2.1 5.2-.6 1.5-1.1 3.1-1 3.7.1.5-.9 1-2.3 1-1.7 0-2.5-.6-2.5-1.8 0-.9.4-1.7.8-1.7.5 0 1.7-.6 2.8-1.4 1.8-1.4 1.8-1.5-.8-2.5-3.2-1.2-3.6-2.6-1-4 2.4-1.5 2.6-1.4 3.9 1.5zm33.9 1.6c-1.8 1.2-2.6.9-2.6-1.1 0-1.1.6-2.1 1.3-2.4 1.6-.5 2.8 2.6 1.3 3.5zm28.8 1.4c1.5 1.5 2.2 4.4 1 4.4-1.8 0-4.4-2.4-4.4-4 0-2.4 1.3-2.6 3.4-.4zm10.1 1.7c-.2 3.2-3.8 3.4-5.8.3-1.8-2.8-1-3.4 3.3-2.8 2 .3 2.6.9 2.5 2.5zm-15.9-.7c-.3.9-.6 2-.6 2.5s-.9.9-2 .9c-1.4 0-2-.7-2-2.3 0-1.7.6-2.3 2.6-2.5 2-.1 2.5.2 2 1.4zm-94.6.4c.4 0 1 .9 1.3 2 .4 1.5 0 2-1.4 2-1 0-2.2.1-2.5.2-.4.2-.8-1-1-2.5-.2-2.2.1-2.7 1.2-2.3.9.3 1.9.6 2.4.6zm5.5 0c.5.8 1.2.7 2.3-.2 1.4-1.1 1.5-1 .9.5-.4 1-.7 2.5-.7 3.3 0 .8-.9 1.4-2 1.4s-2-.6-2-1.4c0-.8-.3-2.1-.6-3-.7-1.8 1.1-2.2 2.1-.6zm17.2 3c-.1 1.1-.8 2-1.7 2-1.3.1-1.3.2.1 1.3 1.2.9 1.5 2.4 1.2 5.2-.2 2.2-.4 5.3-.4 6.9 0 2-.3 2.6-1.1 1.8-.6-.6-1.7-.8-2.4-.5-2.2.8-1.7-2.8.7-5.3 1.9-2 1.9-2.2.2-2.1-1.1.1-1.7-.4-1.5-1.3.3-1.4.9-6.8 1.1-10.3.1-1.4.5-1.6 2-.7 1.1.5 1.9 1.9 1.8 3zm6.9 1.6c-.6 1.6-4.6.6-4.6-1.1 0-.8.8-2.1 1.7-3 1.6-1.6 1.7-1.6 2.5.6.5 1.2.7 2.8.4 3.5zm43.6-2.6c.4 2.6.1 3-1.9 3-2.8 0-3.1-2.7-.5-4.6l1.8-1.4c.1 0 .4 1.3.6 3zm7.4-1.4c-.3.9-.6 1.9-.6 2.3 0 .4-.9.7-2 .7-2.5 0-2.6-2.1-.2-3.5 2.5-1.5 3.5-1.3 2.8.5zm-94.6.1c0 .5.3 1.7.6 2.8.4 1.6 0 2-2.4 2.2-2.6.2-2.9-.1-2.9-2.8 0-2.4.5-2.9 2.4-2.9 1.3 0 2.3.3 2.3.7zm7.3 2c.2 1.3.1 2.3-.4 2.3-.4 0-1.4.2-2.2.5-1 .4-1.4-.2-1.4-2.4 0-2.2.5-2.9 1.8-2.8 1 .1 1.9 1.1 2.2 2.4zm72.2 1.2c-.3 1.2-1.3 2.1-2.1 2.1-2 0-1.7-3.8.4-4.2 2.3-.6 2.5-.3 1.7 2.1zm-14.5-.5c0 .3-.4.8-1 1.1-.5.3-1 .1-1-.4 0-.6.5-1.1 1-1.1.6 0 1 .2 1 .4zm43.2 4.1c-.2 1.5-1.1 2.5-2.1 2.5-2.7 0-3.3-1.2-1.4-3.2 2.3-2.6 4.1-2.3 3.5.7zm7.8.5c0 1.6-.3 3-.7 3-1.4 0-2.9-1.4-3.6-3.2-.5-1.5.3-2.2 3.6-2.7.4 0 .7 1.2.7 2.9zm-93-1.3c0 .5.3 1.7.6 2.8.4 1.8 0 2-3.3 1.9-9.7-.2-10.3-.3-10.3-2.4 0-2.4 3.5-2.8 4.4-.5.7 1.9 2.6 2 2.6.1 0-2 6-3.9 6-1.9zm71.2 1.8c.4 1.6-.1 2.1-1.9 2.3-2.3.2-2.7-.5-1.8-3.1.9-2.1 3.3-1.6 3.7.8zm-51.1-.2c-.1.4-.1 1.6-.1 2.6 0 1.4-.5 1.8-1.8 1.4-2.1-.5-2.5-3.4-.8-4.5 1.3-.9 2.8-.6 2.7.5zm44.5.3c-.3.9-.6 2.1-.6 2.6 0 .6-.3.8-.7.5-.3-.4-1.2-.2-2 .4-1.9 1.7-1.7-1.5.3-3.5 2-2.1 3.8-2.1 3 0zm22.4 7c-.6.6-.7 1.4-.3 1.7.3.4-.3.7-1.5.7s-2.2-.4-2.2-.9-.3-1.7-.6-2.5c-.4-1.2-.2-1.5.9-1 .8.3 1.8 0 2.2-.6.6-.9 1-.9 1.6.1.4.7.4 1.8-.1 2.5zm14-1.1c0 2.9-.9 3.6-3.1 2.4-2.9-1.5-2.4-4.7.6-4.7 1.9 0 2.5.6 2.5 2.3zm-29.4 1.3c.1 1.5-.5 2.2-1.6 2.2-2.2 0-3.2-2.4-1.7-3.9 1.6-1.6 3.2-.8 3.3 1.7zm-72.2 1.3c.3 1.8.1 3.8-.5 4.5-.6.8-.8 2.5-.5 4 .6 2.2.4 2.5-.9 2-.9-.3-2.3-.6-3.1-.6-.8 0-1.4-1-1.4-2.4 0-1.9.7-2.6 3-3.1 1.7-.4 2.7-1.1 2.4-1.7-.3-.5-1.5-.8-2.5-.5-2.1.6-3-1.1-1.7-3.6 1.5-2.9 4.5-2.1 5.2 1.4zm-21.8.3c.1 1.7-.5 2.6-2 3-3.2.9-3.3.8-3.3-2.4 0-2.6.4-3 2.6-3 2 0 2.6.5 2.7 2.4zm6.8-.8c.4.9.5 1.7.4 1.8-.2.1-1.3.7-2.5 1.4-2.2 1.1-2.3 1-2.3-1.8 0-2.3.5-3 1.9-3 1 0 2.2.7 2.5 1.6zm101.3 5.3c0 2.3-.5 2.8-2.4 2.8-2.8 0-3.2-3.1-.5-4.6 2.6-1.5 2.9-1.4 2.9 1.8zm15.3 0c0 2.5-.3 2.8-2.5 2.3-2.6-.5-3.5-3.6-1.2-4.5 2.7-1.2 3.7-.6 3.7 2.2zm-123.2 2.3l2.4 2.3-.7-2.4c-.6-2-.4-2.3 1-1.8.9.4 2.1.7 2.6.7s.9 1 .9 2.1c0 2-.4 2.1-4.9 1.6-3-.4-5.3-.1-5.9.5-1.7 1.7-2.4.4-1.6-2.6.8-3.2 3-3.3 6.2-.4zm100.5 28.2c-.5 2.6-.9 2.8-3.9 2.3-1.9-.3-3.6-.1-3.9.4-.9 1.3-4.3 1.1-4.8-.4-.3-.9-.7-.9-2 .2-1.4 1.1-2 1.1-3.2.1-2.9-2.4-1.7-3.6 3.2-3.4 2.7 0 5.6-.4 6.6-1 1.3-.8 2-.8 2.6.3.7 1.1 1.3 1.1 3.2-.2 2.8-2 2.9-1.9 2.2 1.7zm-83.8-.4c.4.6 1.1.7 1.7.4 1.5-.9 2.9 1.8 1.7 3.2-1.5 1.8-4.6.5-5.2-2.2-.4-2.4.6-3.3 1.8-1.4zm7.5 0c0 .5.6.9 1.3.7.6-.1 1.2.7 1.2 1.8 0 3.3-3.9 2.6-4.2-.8-.1-1.5.2-2.7.8-2.7.5 0 .9.4.9 1zm10.5 1.6c1.7 1.3 1.8 1.6.5 2.4-2.5 1.6-3.7 1.1-4.2-1.5-.6-2.8.7-3.2 3.7-.9zm65.8 5.5c-.7 2.4-3 3.6-4.4 2.2-.7-.7-.5-1.6.6-2.7 2.4-2.3 4.4-2.1 3.8.5zm7.9.5c-.6 3-4.7 3.4-5.5.5-.6-2.5-.5-2.6 3.1-2.8 2.6-.2 2.9.1 2.4 2.3zm-96.1.1c2.4 1.4 3.2 1.5 3.8.5 1.1-1.7 4.1-.4 4.1 1.8 0 1.6-.8 1.8-5.8 1.7-5.7-.2-5.9-.3-5.9-3 0-3.2 0-3.2 3.8-1zm15.9 2.9c0 1.1-2.9 3.4-4.3 3.4-.3 0-.2-5.2.2-7.9.2-1 4.1 3.4 4.1 4.5zm65-2.7c0 1-.9 2.1-2 2.4-1.6.4-2 0-2-1.9 0-1.7.6-2.4 2-2.4 1.3 0 2 .7 2 1.9zm-32.3 6.3c-.3.8-.6.5-.6-.6-.1-1.1.2-1.7.5-1.3.3.3.4 1.2.1 1.9zm38.8.3c0 1.3-.8 2.1-2.2 2.3-2.4.3-2.8-.4-1.7-3.3.9-2.2 3.9-1.4 3.9 1zm8.1-.9c-.3.9-.6 2-.6 2.5s-.9.9-2 .9-2-.2-2-.4-.3-1.1-.6-1.9c-.5-1.4.3-1.8 5-2.6.4 0 .5.6.2 1.5zm7 0c-.3.9-.6 2-.6 2.5s-.9.9-2 .9-2-.2-2-.4-.3-1.1-.6-1.9c-.5-1.4.3-1.8 5-2.6.4 0 .5.6.2 1.5zm-109.1 3c1.7 2.7 1.7 2.7-.6 2.1-1.3-.4-2.7-.7-3.1-.7-.5 0-.8-.9-.8-2 0-2.8 2.5-2.5 4.5.6zm7.8.3c.3 1.3-.1 2.1-1.4 2.4-1.6.4-2.9-1-2.9-3.4 0-1.8 3.8-.9 4.3 1zm5.5-1.3c2.7.8 2.9 3.4.2 3.4-1.1 0-2-.6-2-1.4 0-.8-.6-1.7-1.2-1.9-1.8-.8.3-.8 3-.1zm30.2 2.5c0 1.2-.7 1.9-2 1.9-1.4 0-2-.7-2-2.4 0-1.9.4-2.3 2-1.9 1.1.3 2 1.4 2 2.4zm40.5-2.1c-.3.5-1.1 1-1.6 1-.6 0-.7-.5-.4-1 .3-.6 1.1-1 1.6-1 .6 0 .7.4.4 1zm-11.5.4c0 .2.3 1.2.6 2 .4 1.2.2 1.5-.9 1-.8-.3-1.8 0-2.2.5-1 1.8-2.4.3-1.8-1.9.4-1.6 4.3-3.1 4.3-1.6zm-37.4 6.4c1.6 1 1.3 11-.3 11.6-1.7.7-2.6-1.1-1.9-4 .4-1.3.3-2.4-.2-2.4s-.7-1.4-.4-3c.4-3.1.9-3.5 2.8-2.2zm37.7-.2c.6.7-1.2 4.5-2.8 5.6-1.8 1.3-2.5.8-2.5-1.7 0-1.6.6-2.5 1.5-2.5.8 0 1.5-.5 1.5-1 0-1.1 1.3-1.3 2.3-.4zm6.7 2.3c0 2.4-.3 2.8-2 2.4-2.2-.6-2.7-3.8-.7-4.6 2.3-1 2.7-.7 2.7 2.2zm-35.7-.9c.8 0 .7.3-.1.9-.8.4-1.2 1.2-1 1.7.1.5-.5 1-1.4 1.2-1.4.3-1.8-.3-1.8-2.3 0-2.1.4-2.6 1.6-2.1.9.3 2.1.6 2.7.6zm65.7 3.9c0 1.1.5 2.3 1 2.6.6.4 1-.5 1-1.9 0-2.1.5-2.6 2.4-2.6 2.1 0 3.5 2 3.6 5.2 0 .4-2.9.6-6.5.6-6.5-.1-6.5-.1-6.5-2.9 0-2.4.4-2.9 2.5-2.9 1.8 0 2.5.5 2.5 1.9zm-8 1.1c0 2-2.5 3.8-3.6 2.7-.8-.7 1.5-4.7 2.6-4.7.6 0 1 .9 1 2zm-94.4.4c2.2 1.7 1.9 2.2-2 3.2-2.6.6-2.7.5-1.7-1.3.5-1.1.7-2.3.4-2.7-1.2-1.2 1.3-.6 3.3.8zm80.1 1.3c-.5 3.5-4 4-4.5.6-.2-1.6.3-2.3 2-2.6 1.3-.2 2.4-.5 2.6-.6.1 0 .1 1.1-.1 2.6zm-94.1-.2c.9.8 2 1.5 2.6 1.5.5 0 .8-.7.4-1.5-.7-1.8 2.4-2.1 4.2-.3 2.2 2.2 1.3 2.8-3.9 2.8-2.8 0-5.9.5-7 1-2.2 1.2-2.5 0-.9-3.1 1.3-2.3 2.6-2.4 4.6-.4zm21.5-.5c.5 0 .9.8.9 1.9 0 1.4-.6 1.7-2.4 1.4-1.7-.4-2.4-1.1-2.3-2.4.1-1.2.7-1.7 1.5-1.4.7.3 1.8.5 2.3.5zm15.9 2.4c0 2.4-2.6 3.8-3.9 2.2-.8-.9-.8-1.6-.2-2 .6-.4.7-1.4.4-2.2-.5-1.4-.3-1.5 1.5-.5 1.2.7 2.2 1.8 2.2 2.5zm48.7-2.2c-.2.7-.1 3.7.3 6.5.6 5.1.5 5.3-1.7 5.3-2.7 0-3.2-3-.8-5 .8-.7 1.5-1.6 1.5-2.1s-.7-.6-1.5-.3c-1.1.5-1.5-.1-1.5-1.9 0-1.6.7-2.7 1.8-3 .9-.3 1.9-.5 2.1-.6.2 0 .1.5-.2 1.1zm-36.2 3.6c.2 3.1-2.9 2.5-3.3-.6-.3-1.8.1-2.3 1.4-2 1 .2 1.8 1.3 1.9 2.6zm28.6-.6c-1.1 3-4.1 3.7-4.1.9 0-1.7 1.1-2.5 4.2-3 .4 0 .4.9-.1 2.1zm38.5 3.9c.1 2.4-.2 2.9-2.2 2.9-1.3 0-2.4-.4-2.4-.9s-.2-1.5-.5-2.3c-.5-1.2 3.4-3.9 4.5-3 .3.2.5 1.7.6 3.3zm-94.6.9c0 1-1 2-2.2 2.3-2.8.8-3.2.4-2.4-2.7.4-1.8 1.1-2.3 2.6-1.9 1.1.3 2 1.3 2 2.3zm86.8-.8c-.2 1.4-1.1 2.4-2.4 2.6-1.8.3-2.1-.1-1.7-2.2.7-3.4 4.6-3.7 4.1-.4zm-94.8.7c1.1 2.2 0 3.4-2.4 2.5-2-.8-2.1-4.4-.1-4.4.8 0 1.9.9 2.5 1.9zm22.6-.3c-.3.9-.6 1.9-.6 2.4 0 .9-3.7 2-4.4 1.3-.9-.9 1.4-4.4 2.5-3.8.5.4.9.1.9-.4 0-.6.5-1.1 1.1-1.1.6 0 .8.7.5 1.6zm57.5 2.1c0 2.1.2 5 .3 6.5.1 2.4-.2 2.8-2.6 2.8-3.2 0-3.5-1.5-1.2-4.8.8-1.2 1-2.2.5-2.2-1.5 0-1.4-4.7.2-5.3 2.4-1 2.7-.7 2.8 3zm-51.1.3c0 1.1-.6 2-1.4 2-.7 0-1.6-.9-1.9-2-.4-1.5 0-2 1.4-2 1.2 0 1.9.7 1.9 2zm80.6 6l.4 4-2.5-1.6c-2.9-1.9-3.4-6.1-.7-6.6 2.3-.6 2.4-.4 2.8 4.2zm-14.1 3.3v7.3l-2.6-.4c-2.2-.3-2.6-.8-2.1-2.5.3-1.2 1.1-2.6 1.9-3 1.8-1.1 1.7-2.7-.2-2.7-3.2 0-.7-5.8 2.5-6 .3 0 .5 3.3.5 7.3zM445.3 869c2.3 2.7 2.2 2.7-1.7 3.2-3.2.4-3.4.2-3.4-2.4.1-3.4 2.5-3.7 5.1-.8zm6.3-1.2c.6.4 1.3 1.4 1.6 2.3.5 1.2 0 1.6-1.7 1.6-1.4 0-2.5-.7-2.8-1.8-.7-2.6.7-3.7 2.9-2.1zm15.4 1.9c0 1.6-.6 2.3-1.8 2.3-2.5 0-3.1-.7-2.5-3 .7-2.7 4.3-2.2 4.3.7zm15 1.3c0 3.2-.1 3.3-2.4 2.4-1.9-.7-2.1-2.5-.4-4.2 1.9-1.9 2.8-1.4 2.8 1.8zm88 6.5c0 1.8-.5 2.3-2.5 2.1-2-.1-2.5-.6-2.5-2.8 0-1.4.6-2.8 1.3-3.1 1.8-.7 3.7 1.2 3.7 3.8zm-123.9-1.4c1.4 2.2 1.1 2.6-2.1 3.1-3.5.5-4.4-.3-3.5-3.2.7-2.2 4.1-2.2 5.6.1zm20.8-.9c-.1 2.4-1.4 4.3-3.1 4.6-2.1.3-2.1.2-.8-3.2 1-2.6 4.1-3.7 3.9-1.4zm-14.2 1.4c.3.9 0 2-.8 2.5-2.2 1.3-2.6 1.1-3.1-1.6-.4-2-.1-2.5 1.4-2.5 1 0 2.1.7 2.5 1.6zm15.8 29.4c1.2-1 1.9-1 2.7-.2.7.7 2.2 1.2 3.5 1.2 1.6 0 2.1.4 1.7 1.5-.4.9-1.9 1.5-3.6 1.5-1.6 0-2.7-.4-2.3-.9.3-.5.1-1.2-.5-1.6-.6-.3-1.3.1-1.6.9-.3.8-1.5 1.8-2.7 2.2-2 .6-2 .7-.1 1.8 1 .6 2 1.9 2 2.8.2 2 0 2.1-3.4 1.1-2.1-.5-2.3-1-1.8-3.7.4-1.7.7-4.1.6-5.4 0-1.9.3-2.1 1.9-1 1.5.9 2.3.9 3.6-.2zm12.9 1.9c1.6 1.7 1.6 1.9-.5 2.4-2.9.8-3.8.1-3.2-2.3.7-2.5 1.5-2.5 3.7-.1zm74.3 0c1-.9 1.3-.5 1.3 2 0 3.6-.9 3.8-4 1.3-1.4-1.2-2-2.4-1.5-3.1.5-.9 1-1 1.8-.2.7.7 1.4.7 2.4 0zm-6.4 2.3c.8 2.9.2 3.4-2.8 2-1.5-.7-2.5-.8-2.5-.2 0 .6-1.3 1-2.8 1-2.1 0-2.8-.5-2.8-2 0-2.2 3.1-2.8 3.9-.8.4 1 .8.9 1.6-.2.6-.8 1.1-1.1 1.1-.6 0 .6.5.5 1.2-.2 1.7-1.7 2.5-1.5 3.1 1zm-88.8 4c.7.6.3 1.4-.9 2.4-3 2.1-4.1 1.7-4.1-1.6 0-2.5.3-2.9 2-2.4 1.1.4 2.5 1.1 3 1.6zm14.7.2c1.4 2 .8 2.6-2.1 2.6-2.5 0-2.8-.3-2.4-2.4.4-1.8 1-2.3 2.2-1.9.9.4 1.9 1.1 2.3 1.7zm89.8 1.5c0 2.4-2.5 4.5-4.5 3.7-.8-.3-1.5-1.4-1.5-2.5 0-1.8.6-2.1 5.3-3 .4 0 .7.7.7 1.8zm-15.6.8c.9 2.9.4 3.8-1.8 3.5-2.8-.5-2.9-.7-1.6-3.1 1.3-2.6 2.7-2.7 3.4-.4zm7-.1c2.3 2.2 2 3.6-.6 3.2-1.5-.2-2.4-1.1-2.6-2.6-.4-2.6 1-2.9 3.2-.6zm-87.1 5.4c-.3 1-1.6 2.3-3 2.9-2.9 1.3-4.9.5-3.3-1.4.6-.7 1-1.7.9-2.1-.3-1.8.2-2 3-1.6 2.2.3 2.7.8 2.4 2.2zm64.7-2.6c0 .3-.4.8-1 1.1-.5.3-1 .1-1-.4 0-.6.5-1.1 1-1.1.6 0 1 .2 1 .4zm-80.8 3.2c-.5 2.3-.2 2.1-3.2 2.9-2.3.5-2.5.3-2.5-2.4 0-2.8.3-3 3-2.7 2.3.3 2.9.8 2.7 2.2zm7 0c-.3 1.9-1 2.4-2.6 2.2-2.6-.4-3.3-3.5-.9-4.1 3.6-.9 4-.7 3.5 1.9zm38.2.5c-.3.5 0 1.7.7 2.5 1.4 1.7.6 3-1.3 1.8-.7-.5-2.4-.9-3.8-.9-1.8 0-2.6-.6-2.8-2.2-.3-1.8.2-2.2 3-2.5 3.9-.4 5.1 0 4.2 1.3zm65-.6c-.4.8-.1 2.1.4 2.8.9 1-.1 1.6-4.5 2.5-3.1.6-5.7 1.1-5.8.9-.1-.1-.5-1.5-.9-3-.7-2.7-.6-2.8 2.2-2.2 2 .4 3.3.1 4.2-1 1.7-2 5.1-2 4.4 0zm8.8-.2c-.6.7-.9 2.3-.5 3.6.5 2 .2 2.2-2.3 1.8-2.3-.3-3-.9-3.2-3.2-.3-2.2 0-2.6 1.2-2.2.8.3 1.8.2 2.1-.3.4-.6 1.3-1 2.2-1 1.2 0 1.3.3.5 1.3zm-42.6 3.1c.3.8-.2 2.8-1 4.5-.9 1.7-1.6 3.4-1.5 3.8.4 2.4-.4 3.3-2.6 3.3-3 0-3.5-3.3-.7-5 1.2-.8 1.3-1.3.5-1.6-2-.9-1.5-3 1-4.7 2.8-2 3.6-2.1 4.3-.3zm-40 5.1c.2 2-.3 2.5-2.2 2.5-1.7 0-2.4-.6-2.4-1.9 0-1.7.8-2.2 4-3 .3 0 .6 1 .6 2.4zm8.9 1.3c0 1.1.3 2.4.7 2.8.4.4 0 1.2-.8 1.9-.9.6-1.6 2.3-1.6 3.6 0 2.5-.1 2.5-5.2 1.5-2.8-.5-5.2-1-5.2-1-.1-.1-.5-1.1-.8-2.4-.6-1.9-.4-2.2 1.7-2.2 1.7 0 2.7.7 3.2 2.2l.7 2.3.7-2.5c.5-1.4.6-3.9.4-5.5-.5-2.8-.3-3 2.9-2.9 2.6.1 3.3.5 3.3 2.2zM471 931c0 .5-.4 1-1 1-.5 0-1-.5-1-1 0-.6.5-1 1-1 .6 0 1 .4 1 1zm64 2.6c0 1.9-.4 2.5-1.5 2-.8-.3-1.5 0-1.5.6 0 .9-.3.9-1.1.1s-.7-1.7.3-3.2c1.8-2.9 3.8-2.6 3.8.5zm-90.3 1.4c2.1 2.4 3.5 2.6 2.6.4-.5-1.4-.2-1.6 2.3-1 1.6.4 3.3 1.4 3.7 2.2 1.2 2.2 2.9 1.7 2.2-.6-.6-1.8-.3-2 2.2-1.7 1.9.3 2.7.9 2.5 2.1-.2.9.2 1.6.8 1.6.5 0 1-.7 1-1.5s.6-1.5 1.4-1.5c.8 0 2.1-.2 2.8-.5.8-.3 1.4.1 1.4 1.2.1 1 .5 2.6.9 3.7.7 1.6.5 1.7-1.1.8-1.1-.6-3.9-.7-6.9-.2-3 .5-5.8.4-6.9-.2-1-.6-3.4-.8-5.2-.5-4.6.8-9.4-1.7-8.7-4.3.7-2.6 2.8-2.5 5 0zm37.4 1c.5 0 .9.8.9 1.7 0 1.2-.8 1.8-2.5 1.9-2 .2-2.5-.3-2.5-2.3 0-1.9.4-2.4 1.6-1.9.9.3 2 .6 2.5.6zm86.4 2c.4.6 1 .8 1.5.5 1-.6 2.2 3.7 1.2 4.7-.4.4-1.7.5-3 .2-1.6-.5-2.2-1.4-2.2-3.5 0-2.9 1.3-3.8 2.5-1.9zm-5.5 2.5c0 2.6-.7 2.9-3.4 1.9-1.9-.7-2.1-3-.3-3.7 2.6-1.1 3.7-.6 3.7 1.8zm-36-.2c0-.4.3-.4.6 0 .8.7-1.5 3.1-3.8 4-1.2.4-1.8.2-1.8-.7 0-.8-.3-2.1-.6-3-.5-1.3-.1-1.4 2.5-.6 1.7.5 3.1.6 3.1.3zm8.5 1.4c.1 1.9-.3 2.3-2.7 2.3-3 0-3.7-1.7-1.6-3.8 1.9-1.9 4.1-1 4.3 1.5zm6.5-.7c0 1.3-.7 2-2 2-2.5 0-2.7-2.7-.2-3.3.9-.3 1.8-.5 2-.6.1 0 .2.8.2 1.9zm14.3 0c.4 1.6 0 2-1.9 2-1.3 0-2.4-.6-2.4-1.3 0-3.2 3.5-3.7 4.3-.7zm-95.3 3.3c0 1.9-.5 2.4-2.8 2.5-2.5 0-2.8-.2-2.4-2.4.6-3.4 5.2-3.5 5.2-.1zm21.8.4c-.5 2.6-3.4 2.8-4.1.3-.4-1.6 0-2 2-2 1.8 0 2.4.5 2.1 1.7zm6.5 1.3c.4 1.6 0 2-1.9 2-1.7 0-2.4-.6-2.4-2 0-1.3.7-2 1.9-2 1 0 2.1.9 2.4 2zm66.2 2.6c0 1.2-.8 2-2.2 2.2-2.5.4-3-1.1-1-3.3 1.6-1.9 3.2-1.3 3.2 1.1zm-21.5-.7c0 .5.2 1.6.5 2.4.5 1-.1 1.3-2.4.9-2.6-.4-2.9-.6-1.8-2.3 1.2-2 3.7-2.6 3.7-1zm8 1c0 2.1-3.2 3.7-5.1 2.6-.7-.5-.4-1.3.7-2.6 2.2-2.5 4.4-2.4 4.4 0zm-59 3.6c0 2.1-.5 2.5-3 2.5-2.8 0-2.9-.1-1.8-2.5.6-1.4 1.9-2.5 3-2.5 1.3 0 1.8.7 1.8 2.5z"/><path d="M551 373.1c0 .5.5.7 1 .4.6-.3 1-.8 1-1.1 0-.2-.4-.4-1-.4-.5 0-1 .5-1 1.1zM548.1 344.2c.8.7 1.8 2.1 2.2 3.1.4 1 1.2 1.7 1.8 1.5 1.9-.6 1.1-2.1-2.3-4-1.8-1.1-2.6-1.4-1.7-.6zM577.6 792.9c-.4.7-.5 1.5-.2 1.8.9.9 1.9-.4 1.4-1.8-.4-1.1-.6-1.1-1.2 0z"/></svg>